<?xml version="1.0" encoding="utf-8"?>
<!-- Generator: Adobe Illustrator 25.3.1, SVG Export Plug-In . SVG Version: 6.00 Build 0)  -->
<svg version="1.1" id="Layer_1" xmlns="http://www.w3.org/2000/svg" xmlns:xlink="http://www.w3.org/1999/xlink" x="0px" y="0px"
	 viewBox="0 0 369 509" style="enable-background:new 0 0 369 509;" xml:space="preserve">
<style type="text/css">
	.st0{fill:#FFFFFF;}
	.st1{fill:#231F20;}
	.st2{fill:none;}
	.st3{opacity:0.25;}
	.st4{fill:none;stroke:#000000;stroke-linecap:round;stroke-linejoin:round;}
	.st5{fill:none;stroke:#3F3B3C;stroke-linecap:round;stroke-linejoin:round;}
</style>
<g>
	<g id="Layer_1_1_">
		
			<image style="overflow:visible;opacity:0.25;enable-background:new    ;" width="97" height="106" xlink:href="AF4184025F304A26.png"  transform="matrix(1 0 0 1 272 32)">
		</image>
		<path class="st0" d="M285.1,68.4l6.1,29.1l19.7,13l26.6-13.5l6.7-26.4l-8.2-17.3l-18,36.9l-16-7.4l17.7-36.7l-19,2.4L285.1,68.4z"
			/>
		<path class="st1" d="M308.2,106.6c-4.5-3.6-9.3-6.7-14.3-9.6c-0.7,0.7-1.7,2.2-2,3c5.1,3.8,10.4,7.4,16,10.5c0.7-0.6,1.7-2.2,2-3
			C309.3,107.1,308.7,106.9,308.2,106.6z"/>
		<path class="st1" d="M332.7,97.6c-6.9,3-13.7,6.4-20.3,10.1c0.2,0.9,1,2.6,1.6,3.2c7.7-3.4,15.2-7.2,22.5-11.4
			c-0.2-0.9-1-2.4-1.6-3.2C334.2,96.7,333.5,97.2,332.7,97.6z"/>
		<path class="st1" d="M340,66.2c0.6,1.7,1.5,3.5,2.3,5.2c-2.3,7.8-4.2,15.9-5.9,23.8l1.8,0.8h1.8c2.2-8.3,4.9-16.6,6.6-25
			c-1.4-3.1-3.1-6.3-4.7-9.4L340,62l-1.6,1.2C338.9,64.3,339.7,65.1,340,66.2z"/>
		<path class="st1" d="M322.8,84.6c4-7.2,7.7-14.6,10.9-22.1c-0.7-0.7-2.3-1.5-3.3-1.6c-4.3,8-8.4,16.2-12,24.6
			c0.7,0.7,2.3,1.4,3.3,1.6c0.4-0.7,0.6-1.5,0.9-2.3C322.7,84.8,322.7,84.7,322.8,84.6z"/>
		<path class="st1" d="M306.3,86.8c0.5,0.6,1.2,0.6,1.7,1.1c0.7,0,1,0.4,1.5,0.9c1.4,0.3,2.5,1.1,3.9,1.4c0.5-0.8,1.2-2.4,1.5-3.3
			c-2.4-1.6-5-2.8-7.8-3.6c-0.5,0.8-1.2,2.4-1.5,3.3C305.7,86.7,306,86.6,306.3,86.8z"/>
		<path class="st1" d="M313.4,55.4c-4,7.3-7.8,14.9-11.1,22.6c0.7,0.7,2.3,1.5,3.3,1.6c4.7-8.7,9.6-18.8,13.5-27.8
			c-4.3,4.7-3.2-1.2-3-3.1C316.2,48.3,314.6,53.4,313.4,55.4z"/>
		<path class="st1" d="M303.7,50c2.7,0.1,5.5-0.2,8.1-0.9c0-0.9-0.2-2.7-0.5-3.6c-3.1,0-6,0.3-9,1.1c0,0.9,0.3,2.7,0.4,3.6
			C303.2,50.3,303.5,50.1,303.7,50z"/>
		<path class="st1" d="M289.1,66.2c4.4-4.7,8.3-9.7,12-14.9c-0.6-0.8-2-1.9-2.9-2.2c-4.8,5.3-9.2,10.8-13.3,16.7
			c0.6,0.8,2,1.9,2.9,2.3C288.4,67.4,288.7,66.8,289.1,66.2z"/>
		<path class="st1" d="M292.1,92.9c-1.1-7.6-2.7-15.3-4.6-22.8c-1-0.1-2.7,0.3-3.6,0.8c1.4,8.5,3.1,16.9,5.3,25.2
			c1,0.1,2.7-0.2,3.6-0.7C292.6,94.5,292.4,93.7,292.1,92.9z"/>
		<polygon class="st2" points="310.7,115.7 306.3,112.8 311.3,105.3 315.3,113.4 		"/>
		<path class="st1" d="M314.1,110.8c-0.6,0.4-1.5,0.7-2.1,1.1c-0.5,0-0.7,0.1-1,0c-0.2,0.1-0.6,0-0.8,0.1l0,0l-2.2-1.4l2-3l0.8,0.5
			l0,0l0,0l0,0c0.2,0,0.5,0,0.7,0c0.2-0.1,0.6-0.4,0.8-0.5L314.1,110.8z"/>
		<polygon class="st2" points="341.5,100.2 337.8,102 333.7,94 342.5,96.2 		"/>
		<path class="st1" d="M340.2,96c-0.1,0.6-0.5,1.3-0.4,2l0,0l0,0c-0.2,0.2-0.5,0.2-0.7,0.2l0,0c0,0.1,0,0.5,0,0.6l0,0l-2,0.9
			l-1.8-3.2l0.7-0.4l0,0l0,0l0,0c0,0,0-0.1,0-0.1c0,0,0.2,0,0.2,0l0,0l0,0l0,0l0,0c0-0.2,0.1-0.6,0.1-0.8L340.2,96z"/>
		<polygon class="st2" points="336.1,43 344.1,59.9 336,63.7 327.9,59.8 		"/>
		<path class="st1" d="M330.2,61.7c1.9-3.3,3.2-8,5.8-10.7c1.8,0.9,4.8,9.2,5.9,10.8l-3.4,1.6c-0.5-0.9-1.6-3.8-2.4-4.5H336
			c-1.1,1.1-1.6,3.1-2.4,4.4L330.2,61.7z"/>
		<path class="st1" d="M316.9,91.5c3.1,2.1,3.6-2.3,4.8-4.3l-3.3-1.6c-0.2,0.3-0.7,1.5-0.9,1.8c-0.4,0-0.8,0.1-1.1-0.1
			c-0.1,0-1.5-0.7-1.6-0.7l-1.5,3.3C314.4,90.4,315.8,90.8,316.9,91.5z"/>
		<path class="st1" d="M300.7,81.7c-2.2,3.2,2.6,3.7,4.6,4.9l1.5-3.3c-0.4-0.2-1.6-0.8-1.9-1.2H304v0.3l1-0.1v-0.7l0,0
			c0-0.3,0.6-1.5,0.7-1.9l-3.3-1.6C301.9,79.2,301.5,80.7,300.7,81.7z"/>
		<polygon class="st2" points="327.5,40.8 320.2,55.7 312.1,51.7 311,42.8 		"/>
		<path class="st1" d="M311.4,45.5c3.2-0.2,7.2-1.4,10.4-0.9c0.5,1.7-3.4,8.1-3.9,9.6l-3.3-1.6c0.3-0.8,1.8-3.1,1.5-4
			c-1.3-0.1-3,0.3-4.3,0.4L311.4,45.5z"/>
		<polygon class="st2" points="298.4,44.4 302,43.9 303.2,52.8 296.1,47.3 		"/>
		<path class="st1" d="M298.3,49c0.3-0.4,0.6-0.8,0.7-1.2l0,0l0,0V48c0.1,0,0.9,0,1,0v-0.9l0,0l0,0l0,0l0,0l0,0l1.8-0.2l0.5,3.6
			l-1.2,0.1l0,0l0,0l0,0l0,0l0,0l0,0l0,0V51c0.1,0,1,0,0.3,0l0,0l0,0l0,0l0,0c-0.1-0.1-0.3,0.1-0.4,0.3L298.3,49z"/>
		<polygon class="st2" points="280.3,67.3 282.9,64 290,69.6 281.2,71.4 		"/>
		<path class="st1" d="M283.9,70.9c-0.2-0.6-0.2-1.3-0.9-1.9l0,0l0,0l0,0l0,0v-0.2c0.7-0.1,1-0.4,1-0.4l0,0l0,0v-0.6l0,0l0,0l0,0
			l1.2-1.6l2.7,1.9l0.1,0.6l0,0l0,0l0,0V69c0,0-0.6,0-0.6,0l0-0.1l0,0l0,0l0,0c0,0.3,0.2,0.6,0.2,0.9L283.9,70.9z"/>
		<polygon class="st2" points="287.2,100.3 286.5,96.7 295.3,94.8 290.4,102.3 		"/>
		<path class="st1" d="M291.9,100c-0.4-0.2-0.8-0.6-1.2-1H290v-0.2l0,0l0,0l0,0c0-0.1,0-0.7,0-0.8c-0.2,0-0.4,0-0.6,0l0,0l0,0l0,0
			l0,0l-0.4-1.9l3.8-0.8l0.2,0.7h0.3l0,0H293c0,0.2,0,0.7,0,0.8l0,0l0,0l0,0l0,0c0.5,0.1,0.8,0.2,1,0.3L291.9,100z"/>
		
			<image style="overflow:visible;opacity:0.25;enable-background:new    ;" width="102" height="112" xlink:href="AF4184025F304A2A.png"  transform="matrix(1 0 0 1 2 279)">
		</image>
		<path class="st0" d="M70.3,312.2l-30.8-19.7l-20.8,7.2l-3.3,36.2l16.7,21.5l18.7,4.2l-18-36.9l15.7-8l18,36.5l9.8-16.5
			C74.4,328.5,72.3,320.4,70.3,312.2z"/>
		<path class="st1" d="M23.6,299.9c4.9-1.2,9.8-2.9,14.4-4.9c-0.1-0.9-0.7-2.6-1.2-3.4c-5.5,1.5-10.7,3.3-15.9,5.6
			c0.1,0.9,0.7,2.6,1.2,3.5C22.7,300.4,23.1,300.1,23.6,299.9z"/>
		<path class="st1" d="M17.6,331.1c1.3-9.4,2.2-18.9,2.7-28.3c-1-0.4-2.6-0.6-3.6-0.3c-1.4,10.5-2.2,20.9-2.8,31.5
			c0.9,0.4,2.6,0.5,3.6,0.3C17.6,333.1,17.6,332.2,17.6,331.1z"/>
		<path class="st1" d="M38.5,357.1c-1.7-0.6-3.6-1-5.4-1.4c-4.7-6.7-10-13.3-15.2-19.5l-1.7,0.8l-1.1,1.4
			c5.2,6.9,10.2,14.3,15.9,20.8c3.4,0.8,6.9,1.4,10.3,2.1l0.8-1.6v-2C40.9,357.5,39.7,357.4,38.5,357.1z"/>
		<path class="st1" d="M34.4,331.9c3.2,7.5,6.7,15,10.6,22.2c0.9-0.2,2.6-0.9,3.3-1.6c-3.6-8.4-7.5-16.5-11.9-24.5
			c-1,0.1-2.6,1-3.3,1.6C33.5,330.3,34,331.1,34.4,331.9z"/>
		<path class="st1" d="M42.9,317.5c-0.7,0-1.2,0.6-1.9,0.6c-0.5,0.5-0.9,0.5-1.6,0.6c-1.1,0.9-2.3,1.3-3.5,2.2
			c0.3,0.8,1.2,2.5,1.7,3.2c2.8-1,5.3-2.2,7.7-3.9c-0.3-0.9-1.2-2.5-1.7-3.2C43.3,317.2,43.1,317.4,42.9,317.5z"/>
		<path class="st1" d="M63.2,342.5c-3.2-7.7-6.9-15.3-10.9-22.6c-0.9,0.2-2.6,0.9-3.3,1.6c3.7,8.5,7.8,16.8,12.2,25
			c1-0.1,2.6-0.9,3.3-1.6C64.1,344,63.6,343.3,63.2,342.5z"/>
		<path class="st1" d="M73.4,338.2c-1,0.8-1.3,2.3-2.4,3.1c-0.5,1.4-1.4,2.5-1.9,3.9c0.7,0.5,2.3,1.5,3.1,1.9
			c1.9-2.4,3.4-4.9,4.6-7.8c-0.7-0.6-2.3-1.5-3.1-1.9C73.6,337.6,73.6,337.9,73.4,338.2z"/>
		<path class="st1" d="M69.6,316.4c1.1,6.4,2.6,12.7,4.4,18.9c0.9,0,2.7-0.4,3.5-0.9c-1.3-7.1-3-14.1-5.1-21c-1,0-2.7,0.4-3.5,0.9
			C69.1,315.1,69.4,315.7,69.6,316.4z"/>
		<path class="st1" d="M43.2,296.9c7.9,5.6,16.3,11,24.7,16l1.3-1.4l0.6-1.7c-9-6.2-18.1-12-27.5-17.5l-1.3,1.2l-0.7,1.8
			C41.2,295.9,42.2,296.3,43.2,296.9z"/>
		<polygon class="st2" points="14.5,296.4 20,294.5 22.9,303 14,302.2 		"/>
		<path class="st1" d="M16.7,302.5c0.1-0.9,0.1-2,0.1-2.8l0,0l0,0l0,0c0-0.1,0.2-0.2,0.2-0.2c0-0.3,0.7-0.4,1-0.4v-0.5
			c0,0-0.5-0.1,0-0.1V298h-0.4c0.1,0.3,2.7-0.7,2.9-0.7l1.2,3.5l-1,0.2l0,0l0,0l0,0H21c0,0.1,0,0.9,0,1h-1v-0.7l0,0l0,0l0,0l0,0v1.3
			L16.7,302.5z"/>
		<polygon class="st2" points="10.8,337.2 11.1,333.7 20.1,334.5 13,340 		"/>
		<path class="st1" d="M15.2,338.3c-0.3-0.3-0.6-0.8-0.9-1.1l0,0l0,0c0,0-0.1-0.1-0.1-0.1l0,0l0,0l0,0c0-0.2-0.1-0.5,0.1-0.7
			c-0.1,0-0.2-0.1-0.2,0l-0.1,0l0-0.3l0,0l0,0l0,0l0,0l0,0c0-0.1,0-1.9,0-2l3.1,0.3v0.7h0.5l0,0l0,0H18v0.3c-0.3,0.1-0.1,0.3,0,0.5
			L15.2,338.3z"/>
		<polygon class="st2" points="59,368 40.8,364 42.7,355.2 50.8,351.2 		"/>
		<path class="st1" d="M48.3,352.4c1.3,3.4,4.3,7.2,4.5,10.8c-1.8,0.6-9.8-1.7-11.6-2l0.8-3.6c1.1,0.2,3.9,1,5,0.8
			c0.1-1.5-1.3-3.2-2-4.5L48.3,352.4z"/>
		<path class="st1" d="M33,322.9c-3.4,1.2-0.1,4.5,0.6,6.6l3.3-1.6c-0.3-0.8-1-1.8-0.9-2.6l0,0l0,0l0,0l0,0c0.3,0,1.5-0.7,1.8-0.8
			l-1.5-3.3C35.3,321.6,34.1,322.3,33,322.9z"/>
		<path class="st1" d="M50.5,316.7c-1.2-3.8-5.1,0-7.3,0.9L45,321c0.9-0.4,2-1.2,3-1v0.1l0,0l0,0c0,0.4,0.7,1.7,0.9,2l3.5-1.7
			C51.9,319.2,51,317.8,50.5,316.7z"/>
		<polygon class="st2" points="66.1,362.6 58.8,347.7 66.9,343.8 74.6,348.4 		"/>
		<path class="st1" d="M72.3,347.4c-1.9,2.6-3.3,6.6-5.8,8.6c-1.6-0.6-4.3-7.8-5.2-9.1l3.3-1.6c0.4,0.8,1.4,3.2,2.1,3.8l0,0l0,0h0.1
			c1.1-0.8,1.6-2.5,2.4-3.6L72.3,347.4z"/>
		<polygon class="st2" points="81.1,337.4 79.2,340.6 71.5,336 80.3,333.9 		"/>
		<path class="st1" d="M77.6,334.5c0.2,0.5,0.2,1,0.4,1.5l0,0v0.1l0,0l0,0l0,0l0,0v0.2c-0.2,0.1-1,0.3-1,0.3l0,0v0
			c0.5,0,1,0.2,1,0.2s0,0.2,0,0.3l0,0l-1.1,1.6l-3.3-1.9l0.4-0.6c0-0.1,0-0.3,0-0.3h-0.1l0,0h0.1c0-0.1-0.2-0.4-0.1-0.7L77.6,334.5z
			"/>
		<polygon class="st2" points="74.3,309.4 75.1,312.9 66.4,315 71.2,307.4 		"/>
		<path class="st1" d="M69.6,309.1c0.4,0.2,0.9,0.6,1.2,0.9l0,0l0,0c0,0,0.1,0,0.2,0v0.2l0,0l0,0c0,0.2,0,0.5,0,0.8
			c0.2,0,0.3,0,0.5,0l0,0c0,0.1,0.4,1.8,0.4,1.8l-3.6,0.9c0,0-0.2-0.7-0.2-0.7h0c0,0-0.1,0-0.1,0l0,0v-0.4c-0.2-0.1-0.4-0.2-0.6-0.3
			L69.6,309.1z"/>
		<polygon class="st2" points="40.1,287.5 43.8,289.9 38.9,297.5 36,289 		"/>
		<path class="st1" d="M36.8,291.4c0.6-0.2,1.4-0.5,2-0.7c0.3-0.1,0.6,0.1,0.8,0.3h-0.1c0.2,0,0.5,0.1,0.7,0.1l1.8,1.2l-2,3.1
			l-0.7-1.4H39l0,0l0,0l0,1c0,0-0.2,0-0.2,0c-0.2,0.1-0.6,0.3-0.8,0.3L36.8,291.4z"/>
		
			<image style="overflow:visible;opacity:0.25;enable-background:new    ;" width="116" height="89" xlink:href="AF4184025F304A2D.png"  transform="matrix(1 0 0 1 108 132)">
		</image>
		<path class="st0" d="M119.5,142l78.6,5.5c-10.6,12-18.3,26.3-22.3,41.8c-14.4-4.6-30.1-2.5-42.8,5.6
			C137,176.1,132,156.6,119.5,142L119.5,142z"/>
		<path class="st1" d="M179.9,182.4c3.7-9.2,8.4-18.1,14.1-26.2l-1.3-1.4L191,154c-7.2,9.1-12.4,19.4-15.4,30.6l1.5,0.9l1.9,0.2
			C179.3,184.6,179.6,183.5,179.9,182.4z"/>
		<path class="st1" d="M146,191.2c8.1-2,16.7-2.4,24.9-0.9c0.5-0.9,0.9-2.6,0.8-3.6c-9.9-2.5-20.2-1.8-29.7,2.2c0,1,0.7,2.6,1.3,3.4
			C144.2,191.9,145.1,191.4,146,191.2z"/>
		<path class="st1" d="M126,155c4.3,9.2,6.5,19.4,6.5,29.5l1.9,0.4l1.8-0.3c0.7-12.1-2.2-24.2-8.8-34.3l-1.7,0.6l-1.4,1.3
			C124.8,153.1,125.4,154,126,155z"/>
		<path class="st1" d="M183.3,145.1c-17.5-1.7-35.3-3-52.9-3.9l-0.8,1.9l0.5,1.8c19.5,1.8,39.2,3.2,58.8,4.1l0.8-1.7l-0.5-2
			C187.2,145.2,185.2,145.1,183.3,145.1z"/>
		<path class="st1" d="M175,191.2c3.6,1.7,3.1-3.2,4.1-5.4l-3.5-1.1c-0.1,0.5-0.6,1.8-0.6,2.3H175v0.1c-0.9,0.5-2.1-0.1-3-0.2
			l-0.8,3.6C172.3,190.6,174,191,175,191.2z"/>
		<path class="st1" d="M131.6,193.7c-0.3,1.4-0.7,3-0.6,4.4c4.4-1,8-4.7,12.5-5.9l-1.3-3.4c-1.9,0.6-3.8,2-5.8,2.2l0,0l-0.4-0.3l0,0
			l0,0c-0.1-2,0.3-4.2,0.2-6.2l-3.6-0.1C132.4,187.5,132.6,190.8,131.6,193.7z"/>
		<path class="st1" d="M120.8,140.7c-1.4-0.1-3-0.1-4.5,0l0,0c1.8,4.2,5.8,7.2,7.8,11.3l3.1-1.9c-0.9-1.8-2.5-3.4-3.2-5.3l0,0
			c0-0.1,0-0.2,0.1-0.2l0,0c1.4-0.2,4.5,0.1,6,0.2l0.3-3.6C127.7,141,123.6,140.8,120.8,140.7z"/>
		<path class="st1" d="M198.8,149.8c0.8-1,1.9-1.9,2.2-3.1c-3.5-1.5-8.1-0.6-11.9-1.2l-0.2,3.5c1.3,0.1,3.9,0.2,5.1,0.4
			c-0.1,1.6-2.1,3-2.8,4.4l2.9,2.2C195.6,153.9,197.2,151.8,198.8,149.8z"/>
		
			<image style="overflow:visible;opacity:0.25;enable-background:new    ;" width="81" height="150" xlink:href="AF4184025F304A2E.png"  transform="matrix(1 0 0 1 248 92)">
		</image>
		<path class="st0" d="M258.6,216.7c10.3-38,20.5-76,30.8-114l14.5,3.6C305.6,130.1,300.8,194.9,258.6,216.7z"/>
		<path class="st1" d="M300.3,103.6c-0.4-0.5-1.1-0.2-1.5-0.7c-0.5,0-0.9-0.2-1.3-0.5c-1.2,0-2.2-0.5-3.3-0.4
			c-0.3,0.9-0.7,2.6-0.9,3.5c2.2,0.9,4.4,1.5,6.9,1.6c0.3-0.9,0.7-2.6,0.9-3.5C300.8,103.6,300.5,103.6,300.3,103.6z"/>
		<path class="st1" d="M300.4,159.6c4.7-16.2,6.1-33.4,5.5-50.2l-1.9-0.6l-1.7,0.7c-0.1,18.3-1.8,36.8-6.7,54.5l1.5,1.1h2
			C299.6,163.2,300,161.4,300.4,159.6z"/>
		<path class="st1" d="M273,208.5c13.1-11,21.5-26.9,26.1-43.2l-1.7-1.1l-1.8,0.1c-5.6,17.2-14.8,33.7-29.1,45.2l0.6,1.8l1.6,1.1
			C270.3,211.1,271.7,209.9,273,208.5z"/>
		<path class="st1" d="M271.8,161.1c-4.5,14.7-8.6,29.8-12.3,44.7l1.7,1.1l1.8-0.1c4.8-16.5,9.4-33,13.4-49.8l-1.5-1h-2
			C272.5,157.7,272.2,159.4,271.8,161.1z"/>
		<path class="st1" d="M285.2,111c-4.5,14.7-8.6,29.8-12.3,44.7l1.7,1.1l1.8-0.1c4.8-16.5,9.4-33,13.4-49.7l-1.5-1h-2
			C285.9,107.7,285.5,109.3,285.2,111z"/>
		<path class="st1" d="M305.6,106.6c0-0.4,0.1-1.1-0.3-1.4l0,0l0,0l0,0c-0.5-1.4-2.9-0.8-4.1-1.4l-0.9,3.5c0.3,0.1,1.5-0.4,1.5-0.4
			c-0.1,0-0.8,0-0.8,0v0.7l0,0v0.3h0.9l0,0l0,0h0.1v-0.1l0,0v1.1h3.5C305.7,108.5,305.2,107.4,305.6,106.6z"/>
		<path class="st1" d="M257.5,215.1c-0.4,1.4-0.9,2.9-0.8,4.4c4.6-0.6,8.5-4.5,12.2-7l-2.2-2.9c-1.5,1-3.1,2.8-4.9,3l0,0l0.2,0.1
			c0-2,1-4,1.4-5.8l-3.5-1C259.1,208.8,258.2,212.1,257.5,215.1z"/>
		<path class="st1" d="M289.8,100.8c-3.4-1.4-3,3.1-3.9,5.2l3.5,1c0.1-0.3,0.4-1.6,0.5-1.9l0,0v-0.1l0,0l0-0.1
			c0.7-0.1,2,0.1,2.7,0.4l0.9-3.5C292.4,101.5,290.9,101.5,289.8,100.8z"/>
		
			<image style="overflow:visible;opacity:0.25;enable-background:new    ;" width="174" height="95" xlink:href="AF4184025F304A2C.png"  transform="matrix(1 0 0 1 81 120)">
		</image>
		<path class="st0" d="M183.9,146.9l-49.6-3.5c7.4,15.7,14.5,27,13.8,45.4c5.1-1.3,10.4-1.8,15.7-1.4
			C165.1,171.7,172.8,158,183.9,146.9z"/>
		<path class="st1" d="M148.7,180.9c0.4-12.4-5.6-23.3-11.5-33.7l-1.4,0.2l-0.9,0.9c6.9,13.3,11.2,21.2,11.6,36.8l1.2,0.4l1.3-0.5
			C149,183.5,148.7,182.2,148.7,180.9z"/>
		<path class="st1" d="M159.7,186c-2.8-0.3-5.6-0.1-8.2,0.6c0,0.6,0.2,1.9,0.4,2.5c2.9-0.2,5.8-0.5,8.7-0.7c0.1-0.6,0.1-1.9,0-2.6
			C160.3,185.9,160,186,159.7,186z"/>
		<path class="st1" d="M176,154c-7,8.5-11.9,19.1-13.2,30.1l1.3,0.6l1.3-0.2c2-11.7,7.4-22.6,14.8-31.7l-0.7-1.1l-1.3-0.6
			C177.4,152,176.6,153,176,154z"/>
		<path class="st1" d="M142.7,145.2c11.3,1.1,22.9,1.9,34.3,2.5l0.5-1.3l-0.3-1.2c-12.6-1.2-25.3-2.1-38-2.7l-0.5,1.2l0.3,1.4
			C140.2,145.1,141.4,145.1,142.7,145.2z"/>
		<path class="st2" d="M145,192.8l-0.4-7.6c1.8-0.1,4.5-0.3,6.3-0.3l0.1-0.1l0.2,0.2l0,0c0.1,1.8,0.7,4.4,1,6.2
			C150.1,191.5,147.1,192.3,145,192.8z"/>
		<path class="st1" d="M151.9,189.2c-5.2,1.2-5.2,1.5-5.2-4l2.6-0.1c0,0.4,0.1,1.6,0.1,2l0,0l0,0c0.7,0.1,1.5-0.2,2.2-0.3
			L151.9,189.2z"/>
		<path class="st2" d="M167,190.7c-1.7-0.1-4.3-0.3-6-0.3c0-1.6,0-4.7,0-6.3l0,0c0.1-0.1,0.2-0.2,0.3-0.2c1.8,0,4.4,0.6,6.2,0.8
			C167.3,186.2,167,189.2,167,190.7z"/>
		<path class="st1" d="M165.3,184.5c-0.2,1.2,0.3,3.1-0.7,3.9c-1.1,0-2.5-0.1-3.5-0.1V186h1.1H162c0.2-0.2,0.3-0.3,1-0.3v-0.1l0,0
			v-1.4L165.3,184.5z"/>
		<path class="st2" d="M191.1,144.2c-2.8,2.8-6.9,6.8-9.4,9.8c-1.4-1.1-3.4-2.8-4.7-3.9l0,0l0,0l0,0v-0.4l0.4-6.3L191.1,144.2z"/>
		<path class="st1" d="M176.6,145.2c2.7,0.4,6.1,0,8.6,0.9c-1.2,2.6-3.9,4.4-5.6,6.7l-2-1.6c0.7-0.9,1.8-1.8,2.3-2.8l0,0l0,0v-0.1
			c-0.7-0.2-2.8-0.1-3.5-0.2L176.6,145.2z"/>
		<path class="st2" d="M129.7,139.9l9.4,0.7c-0.1,1.8-0.4,4.5-0.4,6.3l0,0l-0.1-0.1l0.2-0.3c-1.6,0.6-4,1.9-5.7,2.6
			C132,146.4,130.8,142.6,129.7,139.9z"/>
		<path class="st1" d="M134.5,148.2c-0.8-1.8-2-3.7-1.8-5.8c0.8-0.4,5,0.2,6,0.2l-0.2,2.6c-0.5,0-2-0.1-2.4-0.1l0,0V145l0,0l0,0
			c-0.2,0.5,0.6,1.8,0.8,2.2L134.5,148.2z"/>
		<polygon class="st0" points="93.2,129.9 231,142.1 229,161.2 91.2,149 		"/>
		<path class="st1" d="M231.3,155.9c0.6-1.3,0.3-3,1-4.3c-0.1-1.6,0.2-3.3,0.1-4.8c-0.9-0.2-2.7-0.4-3.6-0.4
			c-0.7,3.4-1.1,6.7-0.9,10.1c0.9,0.2,2.7,0.4,3.6,0.4c0-0.3-0.1-0.6-0.1-0.9C231.4,156,231.3,156,231.3,155.9z"/>
		<path class="st1" d="M185.8,159.1c12.8,1.6,25.8,2.8,38.6,3.6l0.6-1.9l-0.3-1.8c-14.3-1.7-28.6-3-42.9-3.8l-0.6,1.7l0.3,1.9
			C182.9,159,184.4,159,185.8,159.1z"/>
		<path class="st1" d="M142.9,155.3c12.8,1.6,25.8,2.8,38.6,3.6l0.6-1.9l-0.3-1.8c-14.3-1.7-28.6-2.9-42.9-3.8l-0.6,1.7l0.3,1.9
			C140,155.2,141.5,155.2,142.9,155.3z"/>
		<path class="st1" d="M99.9,151.6c12.8,1.6,25.8,2.8,38.6,3.6l0.6-1.9l-0.3-1.8c-14.3-1.6-28.5-2.9-42.9-3.8l-0.6,1.7l0.3,1.9
			C97.1,151.5,98.5,151.4,99.9,151.6z"/>
		<path class="st1" d="M90.9,135.2c-0.5,1.3-0.3,3-1,4.3c0.1,1.6-0.2,3.3-0.1,4.8c0.9,0.2,2.7,0.4,3.6,0.4c0.7-3.4,1.1-6.7,0.9-10.1
			c-0.9-0.2-2.7-0.4-3.6-0.4c0,0.3,0.1,0.6,0.1,0.9C90.8,135.1,90.9,135.2,90.9,135.2z"/>
		<path class="st1" d="M136.4,132c-12.8-1.6-25.8-2.8-38.6-3.6l-0.7,1.9l0.3,1.8c14.3,1.7,28.6,2.9,42.9,3.8l0.6-1.7l-0.3-2
			C139.3,132.1,137.8,132,136.4,132z"/>
		<path class="st1" d="M179.3,135.8c-12.8-1.6-25.8-2.8-38.6-3.6l-0.6,1.9l0.3,1.8c14.3,1.7,28.6,2.9,42.9,3.8l0.7-1.6l-0.3-2
			C182.2,135.9,180.8,135.9,179.3,135.8z"/>
		<path class="st1" d="M222.3,139.6c-12.8-1.6-25.8-2.8-38.7-3.6l-0.6,1.9l0.3,1.8c14.3,1.7,28.6,3,42.9,3.8l0.6-1.7l-0.3-2
			C225.1,139.6,223.7,139.6,222.3,139.6z"/>
		<path class="st1" d="M228.4,163c3.7,0.8,2.1-3.6,2.7-5.9l-3.6-0.4c-0.1,0.6-0.2,1.7-0.2,2.3c-0.1,0.1-0.1,0.1-0.2,0.2
			c-0.6,0-1.8-0.1-2.5-0.1l-0.3,3.6C225.6,162.9,227.1,162.7,228.4,163z"/>
		<path class="st1" d="M89.6,148.4c-0.8,3.9,3.8,2.1,6,2.7l0.3-3.6c-0.6-0.1-1.8-0.2-2.4-0.1c0,0-0.1-0.1-0.1-0.1
			c0-0.6,0.1-1.9,0.2-2.6l-3.6-0.4C89.8,145.5,89.9,147.1,89.6,148.4z"/>
		<path class="st1" d="M93.8,128c-3.7-0.8-2.1,3.6-2.7,5.9l3.6,0.4c0.1-0.6,0.2-1.8,0.2-2.3c0-0.1,0.1-0.1,0.1-0.1
			c0.6,0,1.9,0.1,2.5,0.1l0.3-3.6C96.6,128.1,95.1,128.4,93.8,128z"/>
		<path class="st1" d="M232.6,142.8c0.8-3.9-3.8-2.2-6.1-2.8l-0.3,3.6c0.6,0.1,1.9,0.2,2.5,0.1c0,0,0.1,0.1,0.1,0.1
			c0,0.6-0.1,1.9-0.1,2.5l3.6,0.4C232.5,145.5,232.4,144,232.6,142.8z"/>
		
			<image style="overflow:visible;opacity:0.25;enable-background:new    ;" width="171" height="110" xlink:href="AF4184025F304A2B.png"  transform="matrix(1 0 0 1 85 63)">
		</image>
		<path class="st0" d="M93.3,133l134.8,12.6C241,58,101.4,45.8,96.5,133.1"/>
		<path class="st1" d="M100,131.6c-3.3,0-7.6-2.7-6.5,2.6c0.1,1,1.3,0.4,2,0.7c1.8,0.3,3.9,0.3,5.7,0.5l0.3-3.6
			C101.2,131.8,100.3,131.7,100,131.6z"/>
		<path class="st1" d="M138.3,135.4c-12.1-1.6-24.5-2.8-36.7-3.6l-0.6,1.9l0.3,1.8c13.6,1.7,27.2,3,40.9,3.8l0.6-1.7l-0.3-1.9
			C141,135.5,139.6,135.5,138.3,135.4z"/>
		<path class="st1" d="M179.1,139.2c-12.1-1.6-24.5-2.8-36.7-3.6l-0.6,1.9l0.3,1.8c13.6,1.7,27.2,3,40.8,3.8l0.6-1.7l-0.3-2
			C181.8,139.3,180.5,139.2,179.1,139.2z"/>
		<path class="st1" d="M219.9,143c-12.1-1.6-24.5-2.8-36.7-3.6l-0.6,1.9l0.3,1.8c13.6,1.7,27.2,3,40.8,3.8l0.6-1.7l-0.3-2
			C222.6,143.1,221.3,143,219.9,143z"/>
		<path class="st1" d="M216.4,100.5c8.2,11.7,11.3,26.5,10.2,40.7l1.9,0.7l1.8-0.4c2-16.8-2.4-34.6-14.2-47l-1.7,0.7l-1.1,1.7
			C214.4,98.1,215.5,99.2,216.4,100.5z"/>
		<path class="st1" d="M176.2,76.6c13.9,3.1,27.3,9.7,37.1,20.3l1.8-0.9l0.9-1.6c-11-13.1-27.3-20.5-44.2-22.2l-0.7,1.7l0.3,2
			C173,76.2,174.6,76.3,176.2,76.6z"/>
		<path class="st1" d="M129.4,82.8c13-6.2,27.7-8.2,42-6.8l0.8-1.8l-0.3-1.8c-16.7-2.5-34.2,0.5-48.4,9.8l0.4,1.8l1.5,1.3
			C126.7,84.4,128,83.4,129.4,82.8z"/>
		<path class="st1" d="M100.5,118.9c4-13.6,12.8-25.9,24.9-33.6l-0.6-1.9l-1.4-1.2C108.6,90.7,98.6,106,96,122.9l1.6,0.9l2-0.2
			C99.8,122,100.1,120.4,100.5,118.9z"/>
		<path class="st1" d="M97.9,133.1c1.4-2.5,0.6-6.6,1.6-9.6l-3.6-0.7c-0.5,2.9-1.2,5.8-1.3,8.7C95,133,95.9,132.3,97.9,133.1z"/>
		<path class="st2" d="M231.9,150.4l-8.5-0.8c0.2-2.6,0.7-6.4,0.8-8.9l0,0l0.1,0.1l-0.2,0.2c2.5,0.1,6.4,0.6,9,0.8
			C232.7,143.9,232.2,148.3,231.9,150.4z"/>
		<path class="st1" d="M230.3,141c0,2-0.4,3.2-0.3,4.8c-0.5,2.3-4.6,0.9-6.2,0.9l0.3-3.6c0.5,0,1.8,0.1,1.8,0.1v0l0,0l0,0l1,0l0,0
			l0,0l0,0v-0.1c-0.5-0.1-0.4-2.2-0.4-2.2H230.3z"/>
		
			<image style="overflow:visible;opacity:0.25;enable-background:new    ;" width="284" height="150" xlink:href="AF4184025F304A25.png"  transform="matrix(1 0 0 1 14 167)">
		</image>
		<rect x="208" y="191" class="st0" width="65" height="20"/>
		<path class="st1" d="M275.2,205.8c0.4-3.3,0.5-6.6,0.2-9.9c-0.9-0.1-2.7-0.1-3.6,0c-0.4,3.7-0.5,7.3,0,11c0.9,0.1,2.7,0.1,3.6,0
			C275.4,206.5,275.2,206.1,275.2,205.8z"/>
		<path class="st1" d="M218.6,213.1c16.7,0.5,33.7,0.5,50.4,0.2l0.6-1.9l-0.6-1.7c-18.6-0.4-37.4-0.5-56,0l-0.6,1.7l0.6,1.9
			C214.9,213.3,216.7,213.1,218.6,213.1z"/>
		<path class="st1" d="M206.7,197c-0.5,3.3-0.5,6.6-0.2,9.9c0.9,0.1,2.7,0.1,3.6,0c0.3-3.7,0.6-7.3,0.1-11c-0.9-0.1-2.7-0.1-3.6,0
			C206.6,196.2,206.8,196.6,206.7,197C206.8,196.9,206.7,197,206.7,197z"/>
		<path class="st1" d="M263.4,189.6c-16.7-0.5-33.7-0.5-50.4-0.2l-0.6,1.9l0.6,1.7c18.6,0.3,37.4,0.6,56,0.1l0.6-1.7l-0.6-1.9
			C267.1,189.5,265.2,189.7,263.4,189.6z"/>
		<path class="st1" d="M273,213.1c1,0,3-0.9,3-0.9s0-5.3,0-5.2h-4v2.3c-0.3,0-0.4,0.7-0.4,0.7h0l-0.1-1H269v4.1
			C270.3,213.2,271.7,213,273,213.1z"/>
		<path class="st1" d="M206.5,210.7c0,1-0.2,1.7,0.8,2.3c1.7,0,5.7,0,5.7,0v-4h-2.5c-0.1,0.5-0.5,0.4-0.5,0.4s0-1.8,0-2.4h-3.5
			C206.5,208.2,206.6,209.6,206.5,210.7z"/>
		<path class="st1" d="M209,189.6c-0.7,0-2.7-0.1-2,1.1v5.3h3v-2.6l1-0.1v-0.1c-0.6,0-0.6-0.2-0.6-0.2h2.6v-3.5
			C211.7,189.5,210.2,189.5,209,189.6z"/>
		<path class="st1" d="M275.2,191.9c0.7-3.7-4.1-2-6.2-2.4v3.5h2.4l0.1,1h0.1l0.4-0.7v2.7h3.3C275.3,194.6,275.1,193.1,275.2,191.9z
			"/>
		<rect x="48" y="193" class="st0" width="65" height="20"/>
		<path class="st1" d="M114.3,207.4c0.5-3.3,0.5-6.6,0.2-9.9c-0.9-0.1-2.7-0.1-3.7,0c-0.4,3.7-0.5,7.3-0.1,11c0.9,0.1,2.7,0.1,3.7,0
			C114.4,208.2,114.3,207.8,114.3,207.4C114.4,207.5,114.3,207.4,114.3,207.4z"/>
		<path class="st1" d="M57.7,214.8c16.7,0.4,33.7,0.5,50.4,0.2l0.6-1.9l-0.6-1.7c-18.6-0.4-37.4-0.5-56-0.1l-0.6,1.7l0.6,1.9
			C54,214.9,55.8,214.7,57.7,214.8z"/>
		<path class="st1" d="M45.9,198.6c-0.5,3.3-0.5,6.6-0.2,9.9c0.9,0.1,2.7,0.1,3.6,0c0.3-3.7,0.6-7.3,0.1-11c-0.9-0.1-2.7-0.1-3.6,0
			C45.7,197.8,45.9,198.2,45.9,198.6C45.8,198.5,45.9,198.6,45.9,198.6z"/>
		<path class="st1" d="M102.5,191.2c-16.7-0.4-33.7-0.5-50.4-0.2l-0.6,1.9l0.6,1.7c18.6,0.4,37.4,0.5,56,0l0.6-1.7l-0.6-1.9
			C106.2,191.1,104.4,191.4,102.5,191.2z"/>
		<path class="st1" d="M112.1,214.8c0.9,0.2,2.3-0.4,2.9-0.9c0,0,0-3.2,0-4.9h-4c0,0.3,0,2,0,2l0,0v1h-3v2.7
			C109.5,214.8,110.9,214.6,112.1,214.8z"/>
		<path class="st1" d="M45.8,212.5c-0.7,3.7,4,2,6.2,2.4V211h-2.3c-0.1,0.2-0.1,0.1,0.3,0.1V208h-4.3
			C45.7,209.8,45.7,211.3,45.8,212.5z"/>
		<path class="st1" d="M48.1,191.2c-3.5-0.6-1.7,3.5-2.1,6.8h3v-3l1-0.1v0.1h-0.5c0.1,0,2.4,0,2.5,0v-3.8
			C50.8,191.1,49.3,191.2,48.1,191.2z"/>
		<path class="st1" d="M115,193.5v-1.6c-1.8-1.4-4.6-0.6-7-0.8v3.9h2.7c0,0,0.1-0.1,0.3-0.1v3.1h3.5
			C114.5,196.2,115,193.5,115,193.5z"/>
		<path class="st0" d="M70.3,178.5c-10.3,38-20.5,76-30.8,114L25,289C23.3,265.2,28.1,200.3,70.3,178.5z"/>
		<path class="st1" d="M28.6,291.6c0.7,0.4,1.5,0.6,2.3,0.8c0.7,0.9,2,0.2,2.8,0.9c0.2,0,0.7,0,1.1,0c0.3-0.9,0.7-2.6,0.9-3.5
			c-2.2-0.9-4.4-1.6-6.9-1.7c-0.3,0.9-0.7,2.6-0.9,3.5C28.1,291.6,28.4,291.5,28.6,291.6z"/>
		<path class="st1" d="M28.5,235.5c-4.7,16.2-6,33.4-5.5,50.2l1.9,0.6l1.7-0.6c0.1-18.3,1.8-36.8,6.7-54.5l-1.5-1.1h-2
			C29.4,231.8,29,233.7,28.5,235.5z"/>
		<path class="st1" d="M56,186.7c-13.1,11-21.6,26.9-26.1,43.2l1.6,1.1l1.8-0.1c5.6-17.2,14.9-33.8,29.1-45.2l-0.6-1.7l-1.7-1.1
			C58.7,184.1,57.3,185.3,56,186.7z"/>
		<path class="st1" d="M57.1,234c4.5-14.7,8.6-29.8,12.3-44.7l-1.7-1l-1.8,0.1c-4.8,16.5-9.3,33-13.4,49.8l1.5,1l2-0.1
			C56.5,237.4,56.8,235.7,57.1,234z"/>
		<path class="st1" d="M43.7,283.8c4.5-14.7,8.6-29.8,12.3-44.7l-1.7-1l-1.8,0.1c-4.8,16.5-9.4,33.1-13.4,49.8l1.5,1h2
			C43,287.3,43.4,285.5,43.7,283.8z"/>
		<path class="st1" d="M23.3,288.6c0,0.6-0.4,1.1-0.3,1.4l0,0v0.3c1.7,0.6,3,0.6,4.6,1.1l0.9-3.5c-0.3-0.1-1.2-0.3-1.5-0.4l0,0l0,0
			l0,0l0,0l0,0V287h0l0,0l0,0h0v0.3l0,0v-1.7l-3.8,0.1C23.2,286.6,23.5,287.7,23.3,288.6z"/>
		<path class="st1" d="M71.6,180.1c0.4-1.4,0.9-2.9,0.8-4.4c-4.6,0.8-8.5,4.6-12.3,7.1l2.2,2.9c1.2-1,3.7-2.8,4.7-3.1
			c0,1.9-0.9,3.9-1.4,5.8l3.5,0.9C70,186.8,70.9,182.7,71.6,180.1z"/>
		<path class="st1" d="M38.6,294.1c3.4,1.4,3-3.2,3.8-5.3l-3.5-1c-0.1,0.4-0.5,1.6-0.5,2.1l0,0c-0.1,0.1-0.2,0.1-0.2,0.2
			c-0.6,0.1-1.8-0.2-2.5-0.4l-0.9,3.5C36,293.6,37.4,293.7,38.6,294.1z"/>
		
			<image style="overflow:visible;opacity:0.25;enable-background:new    ;" width="155" height="212" xlink:href="AF4184025F304A27.png"  transform="matrix(1 0 0 1 91 165)">
		</image>
		<path class="st0" d="M122,175h79c11,0,20,9,20,20v137c0,11-9,20-20,20h-79c-11,0-20-9-20-20V195C102,184,111,175,122,175z"/>
		<path class="st1" d="M190.3,354.1c15.2,2.6,32.7-3.9,32.4-21.8l-1.9-0.5l-1.7,0.5c-1.2,18.8-18.8,18.7-33.3,18.3l-0.5,1.7l0.5,1.9
			C187.3,354.3,188.8,354.1,190.3,354.1z"/>
		<path class="st1" d="M143.8,354.1c13.9,0.5,28,0.5,41.9,0.2l0.5-1.9l-0.5-1.7c-15.5-0.3-31-0.5-46.5-0.1l-0.5,1.7l0.5,1.9
			C140.8,354.3,142.3,354,143.8,354.1z"/>
		<path class="st1" d="M101.1,340.1c5.6,16.8,23.9,14.7,38.1,14.2l0.5-1.9l-0.5-1.7c-13.5,0.1-33.4,1.7-35.9-15.9
			c-0.6-0.1-1.2-0.2-1.8-0.3c-0.6,0.2-1.2,0.5-1.8,0.8C99.9,336.9,100.5,338.5,101.1,340.1z"/>
		<path class="st1" d="M99.7,293.1c-0.3,14-0.8,28.1,0,42.1c0.7,0.1,1.3,0.2,2,0.3c0.5-0.3,1.1-0.5,1.6-0.7
			c-0.1-15.4,0.5-30.8,0-46.3l-1.9-0.5l-1.9,0.5C99.5,290.1,99.7,291.6,99.7,293.1z"/>
		<path class="st1" d="M99.7,246.6c-0.5,13.9-0.5,27.9-0.2,41.8l1.9,0.5l1.7-0.5c0.4-15.5,0.5-31,0.1-46.5l-1.7-0.5l-2,0.5
			C99.5,243.6,99.7,245.1,99.7,246.6z"/>
		<path class="st1" d="M99.7,200.1c-0.5,13.9-0.5,28-0.2,41.9l1.9,0.5l1.7-0.5c0.4-15.5,0.5-31,0.1-46.5l-1.8-0.5l-1.9,0.5
			C99.5,197.1,99.7,198.6,99.7,200.1z"/>
		<path class="st1" d="M131.9,173.7c-15.2-2.6-32.7,3.9-32.4,21.7l1.9,0.5l1.7-0.5c1.2-18.8,18.8-18.6,33.3-18.2l0.5-1.7l-0.5-1.9
			C134.9,173.6,133.4,173.8,131.9,173.7z"/>
		<path class="st1" d="M178.4,173.7c-13.9-0.5-28-0.5-41.9-0.2l-0.5,1.9l0.5,1.7c15.5,0.3,31,0.6,46.5,0.1l0.5-1.7l-0.5-1.9
			C181.4,173.6,179.9,173.9,178.4,173.7z"/>
		<path class="st1" d="M221.1,187.7c-5.6-16.8-23.9-14.7-38.1-14.2l-0.5,1.9l0.5,1.7c13.4-0.1,33.3-1.8,35.8,15.8
			c0.6,0.1,1.2,0.2,1.8,0.3c0.6-0.2,1.2-0.5,1.8-0.8C222.2,190.9,221.6,189.3,221.1,187.7z"/>
		<path class="st1" d="M222.5,234.7c0.3-14,0.8-28.1,0-42.1c-0.7-0.1-1.3-0.2-2-0.3c-0.5,0.3-1.1,0.5-1.6,0.7
			c0.1,15.4-0.5,30.8,0.1,46.3l1.7,0.5l1.9-0.5C222.7,237.8,222.4,236.2,222.5,234.7z"/>
		<path class="st1" d="M222.5,281.2c0.5-13.9,0.5-28,0.2-41.9l-1.9-0.5l-1.7,0.5c-0.4,15.5-0.5,31,0,46.5l1.7,0.5l1.9-0.5
			C222.7,284.3,222.5,282.7,222.5,281.2z"/>
		<path class="st1" d="M222.5,327.7c0.5-13.9,0.5-28,0.2-41.9l-1.9-0.5l-1.7,0.5c-0.4,15.5-0.5,31,0,46.5l1.7,0.5l1.9-0.5
			C222.7,330.8,222.5,329.3,222.5,327.7z"/>
		
			<image style="overflow:visible;opacity:0.25;enable-background:new    ;" width="53" height="105" xlink:href="AF4184025F304A24.png"  transform="matrix(1 0 0 1 146 59)">
		</image>
		<polygon class="st0" points="162.2,69 174.8,70.1 167.7,139.3 156.2,138.3 		"/>
		<path class="st1" d="M170.6,129c2.3-17.9,4.2-36.1,5.7-54.1l-1.8-0.9l-1.8,0.5c-2.4,20-4.5,40.1-6.2,60.2l1.6,0.9l2-0.5
			C170.3,133,170.4,131,170.6,129z"/>
		<path class="st1" d="M160.8,140.4c0.1,0,0.1,0.2,0.2,0.2c0.2-0.1,0.3,0,0.4,0.2c0.3-0.3,0.3,0,0.5,0.2c0.1,0,0.3-0.2,0.5-0.1
			c0.2-0.2,0.3-0.1,0.4,0.1c0.1,0,0.2-0.3,0.4-0.2c0.1-0.9,0.3-2.7,0.3-3.6c-0.3,0.1-0.4-0.1-0.6-0.3c-0.2,0.1-0.3-0.1-0.5,0
			c-0.1-0.2-0.4-0.2-0.7-0.2c-0.1,0.2-0.2,0.1-0.4,0c-0.1,0.1-0.3,0.2-0.5,0.1c-0.1,0.9-0.3,2.7-0.3,3.6
			C160.6,140.4,160.8,140.1,160.8,140.4z"/>
		<path class="st1" d="M159.5,79.3c-2,17.9-3.6,36.2-4.8,54.2l1.9,0.8l1.8-0.5c2.2-20.1,3.9-40.2,5.2-60.3l-1.7-0.8l-2,0.5
			C159.7,75.3,159.6,77.3,159.5,79.3z"/>
		<path class="st1" d="M170.1,67.9c-0.1,0-0.2-0.2-0.3-0.2c-0.3,0.1-0.4,0-0.5-0.2c-0.3,0.2-0.5,0-0.7-0.2c-0.2,0-0.4,0.2-0.7,0.1
			c-0.2,0.2-0.3,0.1-0.5-0.1c-0.1,0-0.4,0.2-0.6,0.2c-0.1,0.9-0.3,2.7-0.3,3.6c0.5-0.2,0.6,0.4,1.1,0.3c0.1,0.1,0.3,0.1,0.4,0.1
			c0.3,0.3,0.9,0.3,1.2,0c0.3,0.2,0.6-0.1,1,0c0.1-0.9,0.3-2.7,0.3-3.6C170.3,67.9,170,68.2,170.1,67.9z"/>
		<path class="st1" d="M167.1,141c3.8,0.8,2.3-3.7,2.9-6l-3.7-0.4c-0.1,0.6-0.2,1.8-0.2,2.4H166c0,0-0.1,0.1-0.1,0.1
			c-0.6,0-1.9-0.1-2.5-0.1l-0.3,3.7C164.3,140.9,165.9,140.6,167.1,141z"/>
		<path class="st1" d="M154,137.1c-0.8,3.8,3.7,2.1,5.9,2.7l0.3-3.6c-0.5-0.1-1.8-0.2-2.3-0.1l-0.1-0.1h-0.1l0,0l-0.1-0.1
			c0-0.6,0.1-1.9,0.1-2.5l-3.6-0.3C154.1,134.4,154.3,135.9,154,137.1z"/>
		<path class="st1" d="M162.9,67.3c-3.8-1-2.1,3.7-2.7,5.9l3.6,0.3c0.1-0.5,0.2-1.8,0.1-2.3l0.1-0.1v-0.1l0.1-0.1c0,0,0.1,0,0.1,0
			l0.1-0.1c0.5,0,1.8,0.1,2.4,0.1l0.3-3.6C165.7,67.3,164.1,67.5,162.9,67.3z"/>
		<path class="st1" d="M176.5,70.5c1-3.7-3.9-2.4-6.1-3l-0.3,3.6c0.6,0.1,1.8,0.2,2.3,0.1l0.1,0l0,0c0,0,0.1,0.1,0.1,0.1
			c0,0.6-0.1,1.9-0.1,2.5l3.6,0.4C176.2,73.2,176.1,71.7,176.5,70.5z"/>
		
			<image style="overflow:visible;opacity:0.25;enable-background:new    ;" width="141" height="76" xlink:href="54781457C1FAB7D9.png"  transform="matrix(1 0 0 1 102 81)">
		</image>
		<path class="st0" d="M218.5,116.3c-2.4,24.1-42.3,21-40-3.5C180.9,88.7,220.8,91.8,218.5,116.3z"/>
		<path class="st1" d="M190.2,133.2c12.5,5.3,29.6-2,30.1-16.7l-1.9-0.6l-1.8,0.3c-1.1,13.4-18.2,18.3-28.7,12.2
			c-1,0.8-1.6,1.8-1.8,3.2C187.5,132.3,188.8,132.8,190.2,133.2z"/>
		<path class="st1" d="M185.7,98c-12.6,6.7-12.4,27.3,0.5,33.5c0.5-0.5,0.9-1,1.3-1.4c0.1-0.6,0.3-1.2,0.5-1.7
			c-11.3-6.1-9.3-25.1,2.8-29.1c0-1.3-0.4-2.4-1.3-3.4C188.2,96.4,186.9,97.2,185.7,98z"/>
		<path class="st1" d="M220.2,112.1c-0.7-14.4-18.4-21.4-30.6-16.2c0,1.3,0.4,2.4,1.2,3.5c11.3-4.2,27.4,3.5,25.9,16.9l1.7,0.6
			l2-0.3C220.5,115.1,220.5,113.6,220.2,112.1z"/>
		<path class="st0" d="M152.5,111.3c-2.4,24.1-42.3,21-40-3.5C115,83.7,154.8,86.8,152.5,111.3z"/>
		<path class="st1" d="M124.3,128.1c12.5,5.3,29.6-2,30.1-16.7l-1.9-0.6l-1.8,0.3c-1.1,13.4-18.2,18.2-28.7,12.1
			c-1,0.8-1.6,1.9-1.8,3.2C121.5,127.2,123,127.5,124.3,128.1z"/>
		<path class="st1" d="M119.8,92.9c-12.6,6.7-12.4,27.3,0.5,33.5c0.5-0.5,0.9-1,1.3-1.4c0.2-0.6,0.3-1.2,0.5-1.7
			c-11.3-6.2-9.2-25.1,2.9-29.1c0-1.3-0.4-2.4-1.3-3.4C122.3,91.3,121,92.2,119.8,92.9z"/>
		<path class="st1" d="M154.2,107c-0.7-14.4-18.3-21.4-30.5-16.2c0,1.3,0.4,2.5,1.2,3.5c11.4-4.2,27.3,3.5,26,16.9l1.7,0.6l1.9-0.3
			C154.6,110.1,154.7,108.5,154.2,107z"/>
		
			<image style="overflow:visible;opacity:0.25;enable-background:new    ;" width="90" height="92" xlink:href="54781457C1FAB7DF.png"  transform="matrix(1 0 0 1 21 156)">
		</image>
		<path class="st0" d="M37.4,180.2c22.5-31.1,64.4-1.8,42.9,30C57.7,241.4,15.8,212.1,37.4,180.2z"/>
		<path class="st1" d="M40,215.1c-8.5-9.2-7.8-23.8-1-33.8l-1.3-1.5l-1.7-0.6c-9.6,12.5-8.6,32.2,5.1,41.4c1.1-0.7,1.7-1.7,2.1-3
			C42.1,216.9,40.9,216.1,40,215.1z"/>
		<path class="st1" d="M76.2,212.5c-8.3,8.7-22.6,12.1-33.1,5.2c-1.1,0.8-1.8,1.7-2.1,3c13.3,9.6,32.2,3.9,40.7-9.4l-1.2-1.4
			l-1.8-0.7C77.9,210.2,77.3,211.6,76.2,212.5z"/>
		<path class="st1" d="M77.6,175.4c8.5,9.2,7.8,23.8,1,33.8l1.4,1.5l1.7,0.6c9.4-12.6,8.5-32.2-5.2-41.4c-1.2,0.7-1.7,1.7-2.1,3
			C75.5,173.6,76.6,174.5,77.6,175.4z"/>
		<path class="st1" d="M41.4,178.1c8.4-8.6,22.7-12.1,33.1-5.2c1.1-0.8,1.8-1.7,2.1-3c-13.2-9.7-32.2-4-40.6,9.3l1.1,1.4l1.8,0.7
			C39.8,180.3,40.5,179.1,41.4,178.1z"/>
		<g class="st3">
			<path d="M19.9,208.4"/>
			<path class="st4" d="M19.9,208.4"/>
		</g>
		<path class="st0" d="M12.9,201.4"/>
		<path class="st5" d="M12.9,201.4"/>
		<g transform="translate(227 156)">
			
				<image style="overflow:visible;enable-background:new    ;" width="90" height="92" id="image" xlink:href="54781457C1FAB7D8.png"  transform="matrix(1 0 0 1 227 156)">
			</image>
		</g>
		<path class="st0" d="M243.3,180c22.5-31.1,64.4-1.8,42.9,30C263.6,241.1,221.7,211.8,243.3,180z"/>
		<path class="st1" d="M245.9,214.9c-8.5-9.2-7.8-23.8-1-33.8l-1.3-1.5l-1.7-0.6c-9.6,12.5-8.6,32.3,5.2,41.3c1.2-0.7,1.7-1.7,2.1-3
			C248,216.6,247,215.7,245.9,214.9z"/>
		<path class="st1" d="M282.1,212.2c-8.4,8.7-22.7,12.1-33.1,5.2c-1.1,0.8-1.8,1.7-2.1,3c13.3,9.8,32.2,4,40.7-9.3l-1.2-1.4
			l-1.8-0.7C283.8,210,283.1,211.3,282.1,212.2z"/>
		<path class="st1" d="M283.5,175.1c8.5,9.2,7.8,23.8,1,33.8l1.3,1.5l1.7,0.6c9.6-12.5,8.7-32.3-5.1-41.4c-1.2,0.7-1.7,1.7-2.1,3
			C281.5,173.4,282.6,174.2,283.5,175.1z"/>
		<path class="st1" d="M247.3,177.8c8.4-8.7,22.7-12.1,33.1-5.2c1.1-0.8,1.8-1.7,2.1-3c-13.3-9.8-32.2-4-40.6,9.3l1.1,1.4l1.9,0.7
			C245.7,180,246.3,178.8,247.3,177.8z"/>
		
			<image style="overflow:visible;opacity:0.25;enable-background:new    ;" width="75" height="77" xlink:href="54781457C1FAB7DB.png"  transform="matrix(1 0 0 1 268 75)">
		</image>
		<path class="st0" d="M282.7,95.4C299.6,72,331,94,314.9,117.9C298,141.2,266.6,119.2,282.7,95.4z"/>
		<path class="st1" d="M284.7,121.5c-6.4-6.9-5.8-17.8-0.8-25.3l-1-1.1l-1.3-0.4c-7.2,9.4-6.5,24.2,3.9,31c0.9-0.5,1.2-1.3,1.5-2.2
			C286.2,122.9,285.3,122.3,284.7,121.5z"/>
		<path class="st1" d="M311.9,119.5c-6.3,6.5-17,9.1-24.9,3.9c-0.7,0.5-1.4,1.3-1.6,2.2c9.9,7.4,24.1,2.9,30.4-7l-0.9-1l-1.4-0.5
			C313,117.9,312.6,118.9,311.9,119.5z"/>
		<path class="st1" d="M312.9,91.7c6.4,7,5.8,17.7,0.8,25.3l1,1.1l1.3,0.5c7.2-9.4,6.4-24.2-3.9-31l-1,0.9c-0.2,0.5-0.3,0.9-0.5,1.4
			C311.3,90.4,312.1,91,312.9,91.7z"/>
		<path class="st1" d="M285.7,93.7c6.3-6.5,17-9.1,24.9-3.9c0.8-0.6,1.4-1.2,1.6-2.2c-9.9-7.4-24.1-2.9-30.4,7l0.9,1l1.4,0.5
			C284.6,95.3,285,94.4,285.7,93.7z"/>
		<g transform="translate(227 156)">
			
				<image style="overflow:visible;enable-background:new    ;" width="90" height="92" id="image_2_" xlink:href="54781457C1FAB7C7.png"  transform="matrix(1 0 0 1 227 156)">
			</image>
		</g>
		<path class="st0" d="M243.3,180c22.5-31.1,64.4-1.8,42.9,30C263.6,241.1,221.7,211.8,243.3,180z"/>
		<path class="st1" d="M245.9,214.9c-8.5-9.2-7.8-23.8-1-33.8l-1.3-1.5l-1.7-0.6c-9.6,12.5-8.6,32.3,5.2,41.3c1.2-0.7,1.7-1.7,2.1-3
			C248,216.6,247,215.7,245.9,214.9z"/>
		<path class="st1" d="M282.1,212.2c-8.4,8.7-22.7,12.1-33.1,5.2c-1.1,0.8-1.8,1.7-2.1,3c13.3,9.8,32.2,4,40.7-9.3l-1.2-1.4
			l-1.8-0.7C283.8,210,283.1,211.3,282.1,212.2z"/>
		<path class="st1" d="M283.5,175.1c8.5,9.2,7.8,23.8,1,33.8l1.3,1.5l1.7,0.6c9.6-12.5,8.7-32.3-5.1-41.4c-1.2,0.7-1.7,1.7-2.1,3
			C281.5,173.4,282.6,174.2,283.5,175.1z"/>
		<path class="st1" d="M247.3,177.8c8.4-8.7,22.7-12.1,33.1-5.2c1.1-0.8,1.8-1.7,2.1-3c-13.3-9.8-32.2-4-40.6,9.3l1.1,1.4l1.9,0.7
			C245.7,180,246.3,178.8,247.3,177.8z"/>
		
			<image style="overflow:visible;opacity:0.25;enable-background:new    ;" width="63" height="45" xlink:href="54781457C1FAB7D7.png"  transform="matrix(1 0 0 1 168 78)">
		</image>
		<path class="st0" d="M208.5,90.2c-11-2.4-22.4,0.6-30.9,8.1"/>
		<path class="st1" d="M204.4,92.5c1,0.3,2.1,0.4,3.1,0.7c0.9-0.9,0.7-3.5,1.1-4.9c0.2-1.7-3.5-0.9-4.6-1.3l-0.4,5.4
			C203.8,92.5,204.2,92.5,204.4,92.5z"/>
		<path class="st1" d="M184.7,96.4c5.9-2.7,12.4-3.9,19-4c0.3-1.3,0.6-4,0.4-5.4c-8.6-1.3-17.2,0.9-24.1,6.3c0.5,1.3,2.1,3.5,3,4.5
			C183.6,97.4,184.1,96.8,184.7,96.4z"/>
		<path class="st1" d="M179.1,99.9c0.8,1,2.7-1.8,3.9-2.2l-3-4.6C174.9,96.3,175.9,95.4,179.1,99.9z"/>
		
			<image style="overflow:visible;opacity:0.25;enable-background:new    ;" width="64" height="45" xlink:href="54781457C1FAB7C9.png"  transform="matrix(1 0 0 1 113 73)">
		</image>
		<path class="st0" d="M121.8,85.8c11-2.4,22.4,0.6,30.9,8.1"/>
		<path class="st1" d="M125.2,82.3c-5.5-0.1-3.8,1.1-2.9,5.4c0.2,1.5,3-0.2,4.2,0l-0.4-5.4C125.9,82.3,125.4,82.3,125.2,82.3z"/>
		<path class="st1" d="M148.1,87.4c-6.3-4.4-14.4-6.3-22-5.1c-0.1,1.4,0.1,4.1,0.5,5.4c7.2,0,14.5,1.9,20.8,5.4c1-1,2.5-3.3,3-4.5
			C149.7,88.1,148.9,87.9,148.1,87.4z"/>
		<path class="st1" d="M154.1,92.2c1.1-0.9-3-2.9-3.6-3.7l-3,4.6C151.5,96.4,149.5,96.5,154.1,92.2z"/>
		
			<image style="overflow:visible;opacity:0.25;enable-background:new    ;" width="48" height="105" xlink:href="54781457C1FAB7CB.png"  transform="matrix(1 0 0 1 152 59)">
		</image>
		<path class="st0" d="M171.2,69.8c-2.7,23.1-5.3,46.1-8.1,69.2l4.7,0.2l7.1-69.2L171.2,69.8z"/>
		<path class="st1" d="M165,138.3c0,0,0-0.2,0-0.2v0.1l0,0V138v0.1l0,0v0v0.1l0,0c0.6,0.5,0.6,1.4,0.6,1.9l0,0c0,0,0,0.1,0.4,0.1
			v0.1l0,0l0,0v-0.1l0,0C165.6,139.7,165.7,138.7,165,138.3L165,138.3L165,138.3z"/>
		<path class="st1" d="M169.1,117.6c-0.9,6.4-1.6,13-2.1,19.4c0.5,0.3,1.3,0.4,1.8,0.2c0.9-7.2,1.7-14.4,2.1-21.6
			c-0.5-0.3-1.3-0.3-1.8-0.2C169.1,116.2,169,116.9,169.1,117.6z"/>
		<path class="st1" d="M171.3,96c-0.9,6.4-1.5,13-2,19.4c0.5,0.3,1.3,0.4,1.8,0.2c0.9-7.2,1.7-14.4,2.2-21.6
			c-0.5-0.3-1.3-0.3-1.8-0.2C171.4,94.5,171.4,95.3,171.3,96z"/>
		<path class="st1" d="M173.5,74.4c-0.9,6.4-1.6,13-2.1,19.4l0.9,0.3l0.9-0.2c1-7.2,1.6-14.4,2.2-21.6c-0.5-0.3-1.3-0.3-1.8-0.2
			C173.5,73,173.4,73.7,173.5,74.4z"/>
		<path class="st1" d="M169.6,91.5c1-6.4,1.8-12.9,2.3-19.4c-0.5-0.3-1.3-0.4-1.8-0.2c-1,7.2-1.9,14.3-2.5,21.6
			c0.5,0.3,1.3,0.4,1.8,0.2C169.5,92.9,169.5,92.2,169.6,91.5z"/>
		<path class="st1" d="M167,113c1-6.4,1.8-12.9,2.3-19.4c-0.5-0.3-1.3-0.4-1.8-0.2c-1,7.2-1.8,14.4-2.5,21.6
			c0.5,0.3,1.3,0.4,1.8,0.2C166.9,114.5,167,113.7,167,113z"/>
		<path class="st1" d="M164.5,134.6c1-6.4,1.8-12.9,2.4-19.4c-0.5-0.3-1.3-0.4-1.8-0.2c-1.1,7.2-1.9,14.4-2.6,21.6
			c0.5,0.3,1.3,0.4,1.8,0.2C164.4,136,164.5,135.3,164.5,134.6z"/>
		<polygon class="st2" points="169.8,141.6 165.5,141.4 165.7,136.9 170.2,137.4 		"/>
		<path class="st1" d="M169,137.2c-0.2,0.9,0.1,2.2-0.6,2.8c-0.1,0-2.4-0.1-2.6-0.1l0.1-1.9c0.2,0,0.9,0,1.1,0l0,0l0,0l0,0l0,0l0,0
			c0-0.3,0-0.7,0-0.9L169,137.2z"/>
		<polygon class="st2" points="177.3,68.1 176.8,72.6 172.3,72.1 172.7,67.7 		"/>
		<path class="st1" d="M172.6,69c0.8,0.1,1.8,0.1,2.6,0.2l0.1-0.2h0.1c0.1,0.3,0.1,0.4,0.2,0.5c0,0.4-0.2,2.4-0.2,2.8l-1.8-0.2
			c0-0.2,0.1-0.9,0.1-1.1l0,0l0,0l0,0h-1L172.6,69z"/>
		<polygon class="st2" points="169.2,67.3 173.6,67.7 173.1,72.2 168.7,71.7 		"/>
		<path class="st1" d="M170,71.8c0-0.6,0.2-1.5,0.2-2.1l0,0l0,0c0-0.3,0.2-0.5,0.4-0.6l0,0c0,0,0.1,0,0.2,0c0,0,2.3,0.2,2.4,0.2
			l-0.2,1.8c-0.2,0-0.9-0.1-1.1-0.1l0,0l0,0l0,0l0,0l0,0l0,0V71l0,0c0,0.3,0,0.7,0,0.9L170,71.8z"/>
		<polygon class="st2" points="160.6,141.2 161.1,136.4 165.6,136.9 165.4,141.4 		"/>
		<path class="st1" d="M165.4,140c-0.9,0-2,0-2.9-0.1l-0.1,0.1h-0.1l0,0l0,0c-0.1-0.6,0.2-2.7,0.3-3.2l1.8,0.2c0,0.2-0.1,1-0.5,1.2
			l0,0V138h0.4l0,0l0,0l0,0h1.1L165.4,140z"/>
		
			<image style="overflow:visible;opacity:0.25;enable-background:new    ;" width="171" height="51" xlink:href="54781457C1FAB7C8.png"  transform="matrix(1 0 0 1 82 134)">
		</image>
		<path class="st0" d="M92.9,143.2l136.6,13.7c-0.1,1.4-0.3,2.9-0.4,4.3L91.2,149L92.9,143.2z"/>
		<path class="st1" d="M206.8,160.1c6.6,0.8,13.3,1.4,19.9,1.8l0.3-0.9l-0.2-0.9c-7.3-0.9-14.8-1.5-22.1-1.9l-0.3,0.8l0.2,1
			C205.3,160.1,206.1,160.1,206.8,160.1z"/>
		<path class="st1" d="M184.6,158.1c6.6,0.8,13.3,1.4,20,1.8l0.3-0.9l-0.2-0.9c-7.4-0.9-14.8-1.5-22.1-1.9c-0.3,0.5-0.3,1.3-0.2,1.8
			C183.2,158.1,183.9,158.1,184.6,158.1z"/>
		<path class="st1" d="M162.5,156.2c6.6,0.8,13.3,1.5,20,1.9l0.3-0.9l-0.2-0.9c-7.3-0.9-14.8-1.5-22.1-1.9c-0.3,0.5-0.3,1.3-0.2,1.9
			c0.7,0.1,1.3,0,2,0.1L162.5,156.2z"/>
		<path class="st1" d="M140.4,154.2c6.6,0.8,13.3,1.4,19.9,1.8l0.3-0.9l-0.2-0.9c-7.3-0.9-14.7-1.5-22.1-1.9
			c-0.3,0.5-0.3,1.3-0.2,1.9C138.9,154.2,139.6,154.2,140.4,154.2z"/>
		<path class="st1" d="M118.2,152.3c6.6,0.8,13.3,1.3,19.9,1.8l0.3-0.9l-0.2-0.9c-7.3-0.9-14.7-1.5-22.1-1.9l-0.3,0.9l0.2,1
			C116.8,152.2,117.5,152.3,118.2,152.3z"/>
		<path class="st1" d="M96.1,150.3c6.6,0.8,13.3,1.3,20,1.8l0.3-0.9l-0.2-0.9c-7.4-0.9-14.7-1.5-22.2-1.9c-0.3,0.5-0.3,1.3-0.2,1.9
			C94.6,150.3,95.3,150.3,96.1,150.3z"/>
		<path class="st1" d="M91.5,144.9c-0.1,0-0.2,0.1-0.1,0.2c-0.1,0.1-0.2,0.1-0.1,0.2c-0.3,0-0.2,0.3-0.2,0.5c-0.1,0.1-0.1,0.1,0,0.3
			l0,0c0.4,0.1,1.3,0.4,1.8,0.5c0,0,0-0.1,0-0.1c0,0,0.1-0.1,0.2-0.1c0-0.4,0.2-0.7,0.2-1.1c-0.4-0.1-1.3-0.4-2.2-0.5v0.1
			L91.5,144.9z"/>
		<path class="st1" d="M114.7,144.5c-6.6-0.9-13.3-1.6-19.9-2.1l-0.3,0.9l0.2,0.9c7.3,0.9,14.7,1.7,22.1,2.2
			c0.3-0.5,0.3-1.3,0.2-1.8C116.2,144.6,115.5,144.5,114.7,144.5z"/>
		<path class="st1" d="M136.8,146.7c-6.6-0.9-13.3-1.5-19.9-2l-0.3,0.9l0.2,0.9c7.3,0.9,14.7,1.7,22.1,2.2l0.3-0.8l-0.1-1
			C138.3,146.8,137.5,146.9,136.8,146.7z"/>
		<path class="st1" d="M158.9,148.9c-6.6-0.9-13.3-1.6-19.9-2.1c-0.3,0.5-0.4,1.3-0.2,1.8c7.3,0.9,14.7,1.7,22.1,2.2l0.3-0.8l-0.1-1
			C160.3,149,159.6,149,158.9,148.9z"/>
		<path class="st1" d="M180.9,151.1c-6.6-0.9-13.3-1.6-19.9-2.1l-0.3,0.9l0.2,0.9c7.3,0.9,14.7,1.7,22.1,2.2
			c0.3-0.5,0.3-1.3,0.2-1.8C182.4,151.2,181.7,151.2,180.9,151.1z"/>
		<path class="st1" d="M203,153.4c-6.6-0.9-13.3-1.6-19.9-2.1l-0.3,0.9l0.2,0.9c7.3,0.9,14.7,1.7,22.1,2.2c0.3-0.5,0.3-1.3,0.2-1.8
			C204.5,153.4,203.7,153.4,203,153.4z"/>
		<path class="st1" d="M225.1,155.6c-6.6-0.9-13.3-1.5-19.9-2l-0.3,0.9l0.2,0.9c7.3,0.9,14.7,1.7,22.1,2.2l0.3-0.8l-0.1-1
			C226.6,155.7,225.8,155.7,225.1,155.6z"/>
		<path class="st1" d="M228.7,161h0.9l0.1,1l0,0h0.3c0,0,0-0.1,0-0.1l0,0l0,0c-0.3-0.8-0.3-1.7-0.2-2.6l-1.8-0.2c0,0.2-0.1,0.8,0,1
			V160h-0.2l-0.1,0.1c-0.2,0-0.9,0-1.1-0.1l-0.2,1.8C227.1,161.8,228.7,161,228.7,161z"/>
		<path class="st1" d="M90.3,148.8c-0.1,0.4-0.1,0.8-0.1,1.2l0,0l0,0c1.2,0,2.5,0,3.7,0.1l0.2-2c-0.4,0-1.2-0.1-1.5-0.1l-0.1-0.1
			l0,0l0,0l0,0c-0.1-0.4,0.2-1.2,0.3-1.5l-1.9-0.5C90.6,146.6,90.4,148,90.3,148.8z"/>
		<path class="st1" d="M93.2,142h-0.8l0,0l-0.1,0.4l0,0l0,0l0,0l0,0l0,0l0,0l0,0c-0.1,0.6-0.2,1.4-0.4,2l1.8,0.5
			c0-0.1,0.2-0.7,0.2-0.9l0,0l0,0l0,0l0,0l0,0l0,0c0,0,0.2,0,0.1,0l0.7,0.2l0.2-1.8C94.3,142.3,93.7,142.3,93.2,142z"/>
		<path class="st1" d="M230.8,157.2c0-0.3,0.1-0.7-0.1-1l0,0l0,0c-0.9,0-1.8,0-2.7-0.1l-0.2,1.8c0.3,0,0.9,0.1,1.1,0.1l0.1,0.1v0.1
			l0,0l0,0c0,0.2,0,0.9-0.1,1.1l1.8,0.2C230.7,158.9,230.8,157.8,230.8,157.2z"/>
		
			<image style="overflow:visible;opacity:0.25;enable-background:new    ;" width="84" height="80" xlink:href="54781457C1FAB7CF.png"  transform="matrix(1 0 0 1 28 169)">
		</image>
		<path class="st0" d="M45.9,220.9c19.5,10,45.1-12.3,40-34.1C74.4,208.3,63.3,216,45.9,220.9z"/>
		<path class="st1" d="M57.8,217.9c10.6-4.3,19-13,24.8-22.7l-0.9-1.1l-1.2-0.3c-6.5,10.1-15.7,18.8-27,23.3l0.1,1.3l0.9,1.1
			C55.6,219,56.6,218.3,57.8,217.9z"/>
		<path class="st1" d="M84.1,199.9c-3.8,12.8-16.5,23-30.1,21.9c-0.2,0.4-0.4,0.9-0.6,1.3c0.1,0.4,0.3,0.8,0.4,1.3
			c16.7,2,32.1-12.1,33.6-28.5l-1.2-0.7c-0.5,0.1-0.9,0.2-1.4,0.4C84.7,197,84.6,198.4,84.1,199.9z"/>
		<path class="st2" d="M36.7,220.1c4.6-1.4,11.3-3,15.8-4.8c0.6,1.7,1.7,4.1,2.2,5.8l0,0l0,0l0,0l-0.7,0.4v-1.7l0,0
			c0,1.8-0.4,4.5-0.6,6.3C48,226.1,41.6,222.3,36.7,220.1z"/>
		<path class="st1" d="M53.8,224.3c-3.5-0.5-7.4-1-10.2-3.4l0,0l0,0l0,0c3-1.7,6.8-2.1,9.9-3.6l0.9,2.4c-1.3,0.6-2.9,1-4.1,1.6l0,0
			l0,0l-0.1-0.3l0,0h0c1,0.6,2.6,0.5,3.8,0.6L53.8,224.3z"/>
		<path class="st2" d="M87.3,177.4c1.2,5.6,2.5,12.9,2,18.6c-1.8-0.2-4.5-0.6-6.3-0.7l1.4,1l-0.4-0.1l0,0l0,0L84,196
			c-1.4-0.9-3.7-2.3-5.2-3.3C81.4,188.6,85,181.8,87.3,177.4z"/>
		<path class="st1" d="M80.2,193.8c2.1-3,3.4-6.6,5.8-9.4v-0.1l0,0l0,0c1.6,3.5,1.2,7.7,1,11.4l-2.5-0.3c0.3-1.4,0.3-3,0.3-4.5l0,0
			l0.3,0.2l0,0l0,0c-1.1,1-1.7,2.7-2.5,3.9L80.2,193.8z"/>
		
			<image style="overflow:visible;opacity:0.25;enable-background:new    ;" width="110" height="103" xlink:href="54781457C1FAB7EC.png"  transform="matrix(1 0 0 1 113 191)">
		</image>
		<path class="st0" d="M198.2,235.5c-0.2,45-74,45-74.2,0C124.2,190.5,198,190.5,198.2,235.5z"/>
		<path class="st1" d="M166.9,270.8c18.6-1.3,34.2-16.2,33.3-35.3l-2.1-0.6l-2,0.6c0.3,18.6-17.4,32.1-35,31.8l-0.6,1.9l0.6,2.2
			C163.1,271.3,165,271.1,166.9,270.8z"/>
		<path class="st1" d="M122.6,241.4c1.7,18.7,20.7,30.8,38.5,30l0.6-2.2l-0.6-1.9c-17.6,0.2-35.5-13.2-35.1-31.8
			c-0.6-0.2-1.3-0.4-1.9-0.6c-0.7,0.2-1.5,0.4-2.2,0.6C122,237.5,122.2,239.4,122.6,241.4z"/>
		<path class="st1" d="M155.3,200.2c-18.6,1.2-34.2,16.2-33.3,35.3c0.7,0.2,1.5,0.4,2.2,0.6l1.9-0.6c-0.4-18.6,17.5-32,35.1-31.8
			l0.6-1.9l-0.6-2.2C159.2,199.7,157.2,200,155.3,200.2z"/>
		<path class="st1" d="M199.6,229.6c-1.7-18.7-20.7-30.8-38.5-29.9l-0.6,2.2l0.6,1.9c17.7-0.2,35.5,13.2,35.1,31.8l2,0.6l2.1-0.6
			C200.2,233.6,200.1,231.6,199.6,229.6z"/>
		
			<image style="overflow:visible;opacity:0.25;enable-background:new    ;" width="84" height="79" xlink:href="54781457C1FAB7EF.png"  transform="matrix(1 0 0 1 126 203)">
		</image>
		<path class="st0" d="M185.8,235.5c-0.1,30-49.3,30-49.4,0C136.5,205.5,185.7,205.5,185.8,235.5z"/>
		<path class="st1" d="M165,259c12.2-0.7,23-11.1,22.2-23.6l-1.4-0.4l-1.3,0.4c0.2,12.3-11.7,21.5-23.4,21.1l-0.4,1.3l0.4,1.5
			C162.4,259.3,163.7,258.9,165,259z"/>
		<path class="st1" d="M135.4,239.4c1.1,12.5,13.8,20.5,25.7,20l0.4-1.4l-0.4-1.3c-11.8,0.2-23.6-8.8-23.4-21.2l-1.3-0.4l-1.4,0.4
			C135,236.8,135.3,238.1,135.4,239.4z"/>
		<path class="st1" d="M157.2,212c-12,0.7-23.1,11-22.2,23.5l1.4,0.4l1.3-0.4c-0.3-12.4,11.7-21.2,23.4-21.1l0.4-1.3l-0.4-1.4
			C159.8,211.7,158.5,211.9,157.2,212z"/>
		<path class="st1" d="M186.8,231.6c-1.1-12.5-13.8-20.6-25.7-20l-0.4,1.4l0.4,1.3c11.8-0.3,23.6,8.8,23.4,21.2l1.3,0.4l1.4-0.4
			C187.2,234.2,186.9,232.9,186.8,231.6z"/>
		
			<image style="overflow:visible;opacity:0.25;enable-background:new    ;" width="72" height="67" xlink:href="54781457C1FAB7ED.png"  transform="matrix(1 0 0 1 243 177)">
		</image>
		<path class="st0" d="M291.7,185.9c-8.6,16.1-22.9,29.3-40,34.1"/>
		<path class="st1" d="M289.7,192c1.1-1.5,2.1-3.4,3.1-5c0.5-0.7-2.4-1.6-2.5-1c-1,1.9-2.2,3.9-3.4,5.8l2.1,1.4
			C289.2,192.9,289.5,192.4,289.7,192z"/>
		<path class="st1" d="M263,216.8c10.6-5.1,19.5-13.7,25.9-23.6l-0.9-1.1l-1.2-0.3c-7.2,10.3-16.8,19.2-28.2,24.6l0.1,1.3l0.9,1
			C260.8,218.1,261.9,217.5,263,216.8z"/>
		<path class="st1" d="M252,221c2.3,0.2,5.3-1.7,7.6-2.4l-1-2.3C256.2,218,251.1,216.8,252,221z"/>
		
			<image style="overflow:visible;opacity:0.25;enable-background:new    ;" width="75" height="77" xlink:href="54781457C1FAB7E3.png"  transform="matrix(1 0 0 1 0 269)">
		</image>
		<path class="st0" d="M17.3,283.1c20.6-15.4,46.8,19.5,26.4,35C23.1,333.5-3.1,298.6,17.3,283.1z"/>
		<path class="st1" d="M20.7,282.6c8.5-3.9,18.8-0.1,24.4,7.1l1.4-0.6l0.8-1.1c-6.8-9.7-21-13.6-30.8-5.9c0.2,0.4,0.3,0.9,0.5,1.3
			c0.4,0.3,0.8,0.6,1.1,0.9C19,283.7,19.8,283,20.7,282.6z"/>
		<path class="st1" d="M14.2,309.1c-4.3-7.9-3.4-18.9,4-24.8c-0.3-0.9-0.8-1.7-1.6-2.2c-10,7.2-10.2,22-2.8,31.1l1.3-0.5l0.9-1.1
			C15.4,310.7,14.6,310,14.2,309.1z"/>
		<path class="st1" d="M40.3,318.6c-8.5,3.9-18.8,0.1-24.4-7.1l-1.4,0.6l-0.8,1.1c6.7,9.7,21,13.6,30.7,6c-0.2-0.4-0.3-0.9-0.5-1.3
			c-0.4-0.3-0.8-0.6-1.1-0.9C42,317.6,41.2,318.2,40.3,318.6z"/>
		<path class="st1" d="M46.8,292.2c4.3,8,3.4,18.9-4,24.8c0.3,0.9,0.8,1.7,1.6,2.2c10-7.2,10.3-22.1,2.8-31.2l-1.3,0.5l-0.9,1.2
			C45.6,290.5,46.4,291.2,46.8,292.2z"/>
		
			<image style="overflow:visible;opacity:0.25;enable-background:new    ;" width="38" height="72" xlink:href="54781457C1FAB7E4.png"  transform="matrix(1 0 0 1 159 20)">
		</image>
		<path class="st1" d="M167.7,64.9c-0.2,3.8-2.1,5.2,2.9,4.8c1.2-0.3,0.5-4.2,0.9-5.5l-3.6-0.3C167.8,64.1,167.7,64.6,167.7,64.9z"
			/>
		<path class="st1" d="M170.3,37.3c-1.2,8.7-2.1,17.6-2.4,26.4c0.9,0.4,2.7,0.6,3.6,0.3c1.3-9.8,2.2-19.6,2.6-29.4
			c-0.9-0.4-2.7-0.5-3.6-0.3C170.4,35.3,170.6,36.4,170.3,37.3z"/>
		<path class="st1" d="M171.4,28.5c-1.2,1.2-0.5,4.1-1,5.9l3.6,0.3C173.9,31.2,176.6,28.9,171.4,28.5z"/>
		
			<image style="overflow:visible;opacity:0.25;enable-background:new    ;" width="54" height="54" xlink:href="54781457C1FAB7E7.png"  transform="matrix(1 0 0 1 155 0)">
		</image>
		<path class="st1" d="M183.8,13.3c-6.4-10-22.5-2.8-20.5,8.5c2.1,13.3,23.3,11.8,22.8-2l-1.9-0.7l-1.7,0.7
			c0,11.3-18.3,8.3-14.4-2.5c2.5-7.8,14.7-5.6,14.4,2.5l1.7,0.7l1.9-0.7C186,17.4,185.2,15.2,183.8,13.3z"/>
		
			<image style="overflow:visible;opacity:0.25;enable-background:new    ;" width="55" height="46" xlink:href="54781457C1FAB7E5.png"  transform="matrix(1 0 0 1 154 7)">
		</image>
		<path class="st1" d="M182.4,23.6c-2.9,5.8-11.9,6.1-15,0.3c-0.3,0.1-0.6,0.2-1,0.2l-0.6,0.6c4.2,8.5,17.5,6.5,19.1-2.8
			c-0.5-0.4-1.1-0.5-1.8-0.4C182.9,22.3,182.7,22.9,182.4,23.6z"/>
		<path class="st1" d="M169.7,22.5c3.9,0.1,8-0.3,11.7-1.8c0-0.5-0.3-1.3-0.6-1.7c-4,1.2-8.2,1.5-12.4,1.7c-0.1,0.5-0.1,1.4,0,1.8
			c0.4,0,0.8-0.1,1.2-0.1L169.7,22.5z"/>
		<path class="st2" d="M186,15.2c0.3,2.2,0.6,5,0.4,7.1c-1.3-0.2-3.3-0.8-4.6-0.9l0.4,0.8L182,22l0,0l0,0c-0.5-1.2-1.2-3-1.6-4.2
			C182.1,17.3,184.4,16,186,15.2z"/>
		<path class="st1" d="M180.9,19.1c1.3-0.3,2.4-1.3,3.7-1.3c0.1,0.1,0.1,0.1,0.2,0.2c0,1.3,0.1,2.7,0,4l-1.8-0.4c0-0.4,0-1,0-1.4
			l0,0v-0.1l0,0v0.2c-0.6-0.1-1.2,0.3-1.7,0.5L180.9,19.1z"/>
		<path class="st2" d="M162.4,19.3c1.6,0.1,4,0.1,5.6,0.1v4.5l-0.3-0.1l0.4-0.6c-1.1,0.5-2.8,1.5-3.9,2.1
			C163.2,23.7,163,21,162.4,19.3z"/>
		<path class="st1" d="M165.8,24.7c-0.2-0.3-0.3-0.8-0.5-1.1c0-0.3-0.2-0.6-0.3-0.8c0-1.3,0-0.9,0-2.8h-0.2h0.1l0.1,1h4v2
			c0,0-2,0-2.1,0l0,0l0.1-0.5l0,0l0,0l0,0c-0.1,0.5,0.2,1,0.4,1.4L165.8,24.7z"/>
		
			<image style="overflow:visible;opacity:0.25;enable-background:new    ;" width="88" height="161" xlink:href="54781457C1FAB7E2.png"  transform="matrix(1 0 0 1 124 348)">
		</image>
		<path class="st0" d="M160,359.4c14.5-1,27.1,10.3,27,25c0,0,0,75.2,0,75.2c0,33-52,33-52,0c0,0,0-75.2,0-75.2
			C135,370.5,146.2,359.4,160,359.4z"/>
		<path class="st1" d="M154.2,486.1c17.2,4.9,36.1-8.2,35.3-26.6l-2.4-0.6l-2.2,0.6c-0.1,17-19.4,27.3-34.3,20.8
			c-1.2,1.2-1.8,2.5-1.9,4.1C150.5,485.3,152.4,485.6,154.2,486.1z"/>
		<path class="st1" d="M132.9,441.4c-0.9,16.7-2.6,35.3,15.8,43.1c1.2-1.2,1.8-2.5,1.9-4.1c-17.1-7.8-12.4-28.8-13.4-44.1l-2.2-0.6
			l-2.4,0.6C132.7,438,132.7,439.7,132.9,441.4z"/>
		<path class="st1" d="M132.9,389.5c-0.6,15.5-0.6,31.3-0.2,46.8l2.4,0.6l2.2-0.6c0.5-17.3,0.5-34.6,0-52c-1.6-0.6-3-0.6-4.6,0
			C132.7,386,132.8,387.8,132.9,389.5z"/>
		<path class="st1" d="M168,357.7c-17.2-4.9-36.1,8.2-35.3,26.6l2.4,0.6l2.2-0.6c0.1-17,19.4-27.3,34.3-20.7
			c1.2-1.2,1.8-2.5,1.9-4.1C171.7,358.6,169.8,358.4,168,357.7z"/>
		<path class="st1" d="M189.3,402.4c1-16.6,2.5-35.4-15.8-43c-1.2,1.2-1.8,2.5-1.9,4.1c17.1,7.8,12.4,28.8,13.4,44.1l2.2,0.6
			l2.4-0.6C189.6,405.9,189.5,404.1,189.3,402.4z"/>
		<path class="st1" d="M189.3,454.4c0.6-15.5,0.6-31.2,0.2-46.7l-2.4-0.6l-2.2,0.6c-0.5,17.3-0.5,34.6,0,51.9l2.2,0.6l2.4-0.6
			C189.6,457.8,189.4,456.1,189.3,454.4z"/>
		
			<image style="overflow:visible;opacity:0.25;enable-background:new    ;" width="66" height="118" xlink:href="54781457C1FAB81C.png"  transform="matrix(1 0 0 1 177 331)">
		</image>
		<path class="st1" d="M188,419.8c-0.9,3.3-4.3,6.1,1,6.6c1.7-0.9,1.8-4.8,2.9-6.7l-3.4-1.3C188.4,418.9,188.1,419.5,188,419.8z"/>
		<path class="st1" d="M200.6,386.3c-4.4,10.5-8.4,21.4-12.1,32.2l1.6,1.1l1.8,0.2c4.8-11.8,9.3-23.7,13.2-35.8l-1.5-1l-1.9-0.3
			C201.3,383.9,201.1,385.1,200.6,386.3z"/>
		<path class="st1" d="M213.8,350.4c-4.4,10.5-8.5,21.4-12.1,32.2l1.6,1.1l1.8,0.2c4.8-11.8,9.2-23.7,13.2-35.8l-1.5-1l-1.9-0.3
			C214.5,348,214.3,349.3,213.8,350.4z"/>
		<path class="st1" d="M218.1,339.7c-1.7,1.4-1.9,5-3.1,7.1l3.4,1.3C219.1,344.7,223.3,341.5,218.1,339.7z"/>
		
			<image style="overflow:visible;opacity:0.25;enable-background:new    ;" width="63" height="114" xlink:href="54781457C1FAB81F.png"  transform="matrix(1 0 0 1 96 336)">
		</image>
		<path class="st1" d="M131.4,422.5c1.4,3.1,0.5,7.1,4.9,4.2c0.8-1.5-1.6-4.8-1.9-6.7l-3.4,1.2C131.1,421.6,131.2,422,131.4,422.5z"
			/>
		<path class="st1" d="M120.3,390.1c3.1,10.5,6.7,20.9,10.6,31.1l1.9-0.2l1.5-1c-3.6-11.6-7.5-23.1-11.9-34.5l-1.8,0.2l-1.7,1
			C119.5,387.8,120.1,388.9,120.3,390.1z"/>
		<path class="st1" d="M108.4,355.6c3.1,10.5,6.7,20.9,10.6,31.1l1.9-0.2l1.5-1c-3.6-11.6-7.5-23.1-11.9-34.5l-1.8,0.2l-1.7,1
			C107.5,353.3,108.2,354.4,108.4,355.6z"/>
		<path class="st1" d="M105.1,345.1c-0.5,2.1,1.6,4.8,2,7.1l3.4-1.2c-0.8-1.9-1.1-4.2-2-6.1C107.7,344.1,107.3,345,105.1,345.1z"/>
		
			<image style="overflow:visible;opacity:0.25;enable-background:new    ;" width="66" height="41" xlink:href="54781457C1FAB803.png"  transform="matrix(1 0 0 1 134 369)">
		</image>
		<path class="st1" d="M145.8,382.5c-1.9,1.3-5.3,3.1-1.5,4.1c1.1-1.1,2.3-2,3.6-2.8l-1.2-1.8C146.5,382,146,382.4,145.8,382.5z"/>
		<path class="st1" d="M171,380.9c-7.5-4.2-17.2-3.9-24.3,1l0.4,1.1l0.8,0.7c7.3-4.5,17.2-4.5,24.3,0.3l0.8-0.7l0.4-1.1
			C172.7,381.8,171.8,381.4,171,380.9z"/>
		<path class="st1" d="M177.6,386.2c-0.6-1.6-2.7-2.7-4.1-3.9l-1.2,1.8C174.2,385,175.4,388.4,177.6,386.2z"/>
		
			<image style="overflow:visible;opacity:0.25;enable-background:new    ;" width="55" height="37" xlink:href="54781457C1FAB801.png"  transform="matrix(1 0 0 1 140 360)">
		</image>
		<path class="st1" d="M150.7,371.6c-0.8,0.3-1.6,1-2.3,1.5c-0.2,0.6,0.9,1.1,1.2,1.6c0.9,0.2,1.8-1.2,2.8-1.6l-1-1.9
			C151.2,371.4,150.9,371.6,150.7,371.6z"/>
		<path class="st1" d="M167.7,370.5c-5.1-2.5-11.5-2.2-16.3,0.8c0.1,0.6,0.6,1.5,1,1.9c4.9-2.4,11.1-2.5,16-0.1
			c0.4-0.4,0.9-1.3,1-1.9C168.9,371,168.3,370.8,167.7,370.5z"/>
		<path class="st1" d="M172.4,373.6c-0.2-1.1-2.1-1.6-3-2.3l-1,1.9C170.2,374,170.7,375.9,172.4,373.6z"/>
		
			<image style="overflow:visible;opacity:0.25;enable-background:new    ;" width="68" height="40" xlink:href="54781457C1FAB83F.png"  transform="matrix(1 0 0 1 133 380)">
		</image>
		<path class="st1" d="M145.5,392.2c-1.7,1-5.5,1.6-2.8,3.7c1.5,0,3-1.7,4.6-2.2l-0.9-2C146.3,391.9,145.8,392.1,145.5,392.2z"/>
		<path class="st1" d="M171.5,391.9c-7.7-3.7-17.2-3.7-24.9-0.1l0.2,1.2l0.7,0.8c8.2-3.3,17.8-2.9,25.6,1.2l0.8-0.8l0.3-1.2
			C173.3,392.5,172.3,392.3,171.5,391.9z"/>
		<path class="st1" d="M178.8,396.4c-0.7-1.5-3.2-2.3-4.6-3.4l-1,1.9C175.3,395.6,176.6,399.1,178.8,396.4z"/>
		
			<image style="overflow:visible;opacity:0.25;enable-background:new    ;" width="68" height="39" xlink:href="54781457C1FAB802.png"  transform="matrix(1 0 0 1 133 439)">
		</image>
		<path class="st1" d="M145.9,449.9c-2-0.6-3.7-3.7-4.6-0.4c0.7,1.4,3.2,2,4.7,2.8l0.9-2C146.6,450.2,146.1,450,145.9,449.9z"/>
		<path class="st1" d="M170.4,451.7c-7.7,2.3-16.1,1.8-23.5-1.4l-0.8,0.9l-0.1,1.1c8.7,4.2,19,4.4,27.8,0.4l-0.1-1.1l-0.7-0.9
			C172.1,451,171.3,451.5,170.4,451.7z"/>
		<path class="st1" d="M177.8,448.4c-1.5,0.1-3.3,1.9-5,2.3l0.9,2C175.5,451.5,179.7,451.5,177.8,448.4z"/>
		
			<image style="overflow:visible;opacity:0.25;enable-background:new    ;" width="65" height="39" xlink:href="54781457C1FAB805.png"  transform="matrix(1 0 0 1 136 449)">
		</image>
		<path class="st1" d="M148.4,460.1c-1.9-0.7-3.4-3.5-4.4-0.3c0.5,1.4,2.9,1.9,4.2,2.7l0.9-2C149,460.4,148.5,460.2,148.4,460.1z"/>
		<path class="st1" d="M170.7,461.4c-6.9,2.4-14.8,2.1-21.5-0.9c-0.5,0.5-0.9,1.3-0.9,2c8,4,17.6,4,25.6-0.3c0-0.7-0.4-1.5-1-2
			C172.2,460.6,171.4,461,170.7,461.4z"/>
		<path class="st1" d="M177.2,458c-1.4,0.2-2.9,1.9-4.4,2.3l1,2C175.6,461.2,179.4,460.8,177.2,458z"/>
		
			<image style="overflow:visible;opacity:0.25;enable-background:new    ;" width="55" height="36" xlink:href="54781457C1FAB806.png"  transform="matrix(1 0 0 1 140 462)">
		</image>
		<path class="st1" d="M151.9,471.1c-0.7-0.4-1.5-0.6-2.2-0.9c-0.5,0.2-1,1.7-0.8,2.2c0.9,0.4,1.9,0.7,2.9,1l0.7-2.1
			C152.3,471.3,152,471.2,151.9,471.1z"/>
		<path class="st1" d="M166.8,471.9c-4.7,0.9-9.7,0.6-14.4-0.6c-0.3,0.5-0.7,1.5-0.7,2c5.6,2,11.6,2.1,17.2,0c0-0.6-0.3-1.6-0.7-2
			C167.9,471.5,167.3,471.6,166.8,471.9z"/>
		<path class="st1" d="M171.5,470.5c-0.8-0.4-2.2,0.9-3.2,0.9l0.6,2.1C171,472.6,172.8,473.4,171.5,470.5z"/>
		
			<image style="overflow:visible;opacity:0.25;enable-background:new    ;" width="49" height="83" xlink:href="54781457C1FAB807.png"  transform="matrix(1 0 0 1 109 344)">
		</image>
		<path class="st1" d="M133,400.9c0.6,1.4,0.5,4.5,2.6,2.8c0.3-1.2-0.9-2.8-1.1-4.2l-1.7,0.6C132.8,400.4,132.9,400.7,133,400.9z"/>
		<path class="st1" d="M126.5,380.7c1.9,6.5,4,13,6.2,19.4l1-0.1l0.8-0.5c-2.2-7.2-4.5-14.4-7-21.6h-0.9l-0.8,0.5
			C126,379.3,126.3,380,126.5,380.7z"/>
		<path class="st1" d="M119.5,358.7c1.9,6.5,4,13.1,6.2,19.4l1-0.1l0.7-0.5c-2.1-7.2-4.5-14.4-7-21.5h-0.9l-0.8,0.5
			C119,357.3,119.3,357.9,119.5,358.7z"/>
		<path class="st1" d="M117.5,352.6c-0.2,1.2,1,3,1.2,4.4l1.7-0.6C119.6,354.8,120.3,351.7,117.5,352.6z"/>
		
			<image style="overflow:visible;opacity:0.25;enable-background:new    ;" width="52" height="80" xlink:href="54781457C1FAB80C.png"  transform="matrix(1 0 0 1 178 344)">
		</image>
		<path class="st1" d="M187.5,397.8c-0.4,1.5-2.5,3.7,0.3,3.8c1-0.7,1-2.6,1.7-3.7l-1.7-0.7C187.8,397.3,187.6,397.7,187.5,397.8z"
			/>
		<path class="st1" d="M195.1,378.7c-2.6,6-5.1,12.2-7.3,18.4l0.8,0.6l0.9,0.1c2.9-6.8,5.6-13.5,8-20.5l-0.7-0.5l-1-0.1
			C195.6,377.3,195.4,378,195.1,378.7z"/>
		<path class="st1" d="M203.2,358.2c-2.6,6-5.1,12.2-7.3,18.3c0.4,0.4,1.2,0.7,1.7,0.7c2.9-6.7,5.6-13.5,8-20.4
			c-0.4-0.4-1.2-0.7-1.7-0.7C203.6,356.8,203.4,357.5,203.2,358.2z"/>
		<path class="st1" d="M205.8,352.1c-1,0.9-1.1,2.8-1.8,4.1l1.7,0.7C205.9,355,208.5,353.2,205.8,352.1z"/>
		
			<image style="overflow:visible;opacity:0.25;enable-background:new    ;" width="72" height="57" xlink:href="54781457C1FAB80D.png"  transform="matrix(1 0 0 1 4 288)">
		</image>
		<path class="st0" d="M44.6,306.9c-7.1,5.5-15.4,10.9-24.8,10.5c12.9,10.4,32.8,0.8,31.2-15.7C48.9,303.5,46.8,305.2,44.6,306.9z"
			/>
		<path class="st1" d="M49,309.4c-3.1,8.9-13.7,13.4-22.5,10.4l-0.7,0.8l0,1C37,326,50,318.6,51.6,306.7c-0.3-0.2-0.5-0.4-0.8-0.5
			c-0.3,0.1-0.7,0.1-1,0.2C49.5,307.4,49.3,308.4,49,309.4z"/>
		<path class="st1" d="M29.5,316.9c6.8-2.3,12.9-6.6,18.3-11.3l-0.4-1l-0.8-0.5c-6,4.7-12.5,9.4-19.9,11.7l0,0.9l0.5,0.9
			C27.9,317.4,28.7,317,29.5,316.9z"/>
		<path class="st2" d="M53,296.6c0.2,3.1,0.4,7.3,0.1,10.3c-1.3-0.2-3.3-0.7-4.7-0.8l0.5,0.6l-0.2-0.1l0,0l0,0l0,0
			c-0.8-1.1-2.2-2.7-3.1-3.7C47.6,301.5,51.3,298.3,53,296.6z"/>
		<path class="st1" d="M46.9,304.1c1.6-1.1,3.2-3,4.9-3.7c0.3,2,0,4.3,0,6.3l-1.9-0.3c0-0.8,0.2-1.6,0.1-2.4l0,0l0,0v0.1
			c-0.5-0.1-1.6,1.2-2,1.5L46.9,304.1z"/>
		<path class="st2" d="M12.7,315.1c4-0.1,9.8,0.3,13.7-0.7c0.3,1.3,0.8,3.2,1,4.5l0,0l0,0l-0.8,0.6l0.3-1.2l0,0l0,0
			c-0.4,1.2-1,3.2-1.5,4.4c-0.7-0.2-1.5-0.6-2.2-0.8l-0.1,0.1C20,320.7,15.5,317.1,12.7,315.1z"/>
		<path class="st1" d="M25.9,321.5c-1.2-0.2-2.4-0.8-3.5-1.3l-0.1-0.2h0l0,0c-1.4-0.9-3.1-1.7-4.2-3.1l0,0l0,0l0,0
			c2.8-0.4,5.9,0,8.7-0.8l0.4,1.9c-1.2,0.3-2.6,0.4-3.8,0.6l-0.1-0.1l0,0l0,0c0.9,0.7,2.1,1.1,3.2,1.4L25.9,321.5z"/>
		
			<image style="overflow:visible;opacity:0.25;enable-background:new    ;" width="70" height="61" xlink:href="54781457C1FAB80E.png"  transform="matrix(1 0 0 1 274 76)">
		</image>
		<path class="st0" d="M318.5,110.1c5.6-18.8-16.9-32.6-31.4-19.5C299.2,94,310,100.8,318.5,110.1z"/>
		<path class="st1" d="M313.9,104.3c-6.2-5.9-13.8-10.4-21.9-13.1c-0.4,0.3-0.6,0.4-1,0.7v1c8.8,3.3,16.9,8.4,23.8,14.8l0.9-0.4
			l0.5-1C315.3,105.6,314.6,105,313.9,104.3z"/>
		<path class="st1" d="M311.6,90c4.6,3.8,6.7,9.8,6.6,15.6c0.5,0.2,1.4,0.3,1.9,0.1c0.7-7.3-2.7-14.7-9.1-18.4
			c-0.5,0.3-0.9,1.1-1,1.7C310.6,89.3,311.1,89.6,311.6,90z"/>
		<path class="st1" d="M293,88c5.5-2.1,11.8-2.1,17,0.9c0.4-0.3,0.9-1.1,1-1.6c-6.2-4-14.4-3.8-20.6,0c0,0.6,0.5,1.3,0.9,1.7
			C291.8,88.6,292.5,88.4,293,88z"/>
		<path class="st2" d="M319.7,114.9c-1.6-1.8-4.2-4.6-5.9-6.3c0.9-0.9,2.3-2.4,3.2-3.3l0,0l0,0l0,0l0.3,0.2l-0.5,0.2
			c1.3,0,3.4,0.1,4.7,0.2C321.4,108.7,320.4,112.3,319.7,114.9z"/>
		<path class="st1" d="M320.1,106.1c-0.2,1.8,0,3.9-1,5.4c-1.5-0.4-2.9-2.8-4.2-3.7l1.3-1.4c0.3,0.3,1.3,1.5,1.7,1.5l-0.1,0.1l0,0
			l0,0l0-0.1c0-0.6,0.1-1.4,0-2.1L320.1,106.1z"/>
		<path class="st2" d="M282.1,91.7c2.2-1.8,5.1-4.4,7.5-5.6c0.6,1.2,1.7,2.9,2.2,4.1l0,0l0,0l0,0l0.2-0.6v0.2l0,0l0,0l0,0
			c-0.4,1.3-0.9,3.3-1.5,4.6C288.2,93.4,284.5,92.4,282.1,91.7z"/>
		<path class="st1" d="M290.7,92.9c-1.7-0.7-3.8-0.9-5.3-1.9h0c0-0.1,0.1-0.2,0-0.3c1-1.4,3-2.4,4.5-3.3l0.9,1.7
			c-0.6,0.4-1.4,0.7-1.8,1.2l0,0v-0.1l0,0l0,0c0,0,0.1,0.1,0.1,0.1c0.4-0.1,1.7,0.4,2.1,0.5L290.7,92.9z"/>
		
			<image style="overflow:visible;opacity:0.25;enable-background:new    ;" width="85" height="115" xlink:href="54781457C1FAB86A.png"  transform="matrix(1 0 0 1 149 245)">
		</image>
		<path class="st1" d="M207.2,305.9c-0.3,8.5-0.4,17.1-0.1,25.5c0.8,0.3,1.8,0.3,2.6,0c0.3-9.5,0.3-18.9,0.1-28.4l-1.2-0.3l-1.3,0.3
			C207.2,304,207.4,305,207.2,305.9z"/>
		<path class="st1" d="M207.2,277.5c-0.3,8.5-0.3,17.1-0.1,25.6l1.3,0.3l1.2-0.3c0.3-9.5,0.3-18.9,0.1-28.4c-0.8-0.3-1.8-0.3-2.6,0
			C207.2,275.6,207.5,276.6,207.2,277.5z"/>
		<path class="st1" d="M187.3,299.2c5.7-8.3,11.2-16.9,16.5-25.5l-0.9-1l-1.2-0.3c-6.3,9.3-12.4,18.7-18.2,28.4l0.8,1l1.3,0.4
			C186.2,301.2,186.7,300.1,187.3,299.2z"/>
		<path class="st1" d="M169,327.6c5.7-8.3,11.3-16.9,16.5-25.5l-0.9-1l-1.2-0.3c-6.3,9.3-12.4,18.7-18.2,28.4l0.8,1l1.3,0.4
			C167.9,329.6,168.4,328.6,169,327.6z"/>
		<path class="st1" d="M201.7,333.4c-10.9-0.3-22-0.4-32.8-0.1l-0.4,1.3l0.4,1.2c12.1,0.2,24.4,0.3,36.5,0.1l0.4-1.2l-0.4-1.3
			c-1.1,0-2.2,0.1-3.2,0.1C202,333.4,201.8,333.4,201.7,333.4z"/>
		<polygon class="st2" points="212,253.5 212,275 205.7,275 200.4,271.6 		"/>
		<path class="st1" d="M201.8,272.6c2.4-3.4,4.7-8.1,7.5-11.1l0,0l0,0c0.4,1.5,0.1,11.8,0.2,13.5H207c0-0.9,0-4.7,0-5.6l0,0
			c-0.9,0.7-2.5,3.7-3.2,4.6L201.8,272.6z"/>
		<polygon class="st2" points="157.5,338 163.7,328.3 169,331.7 169,338 		"/>
		<path class="st1" d="M168.8,336c-2.2-0.1-5.1,0.4-7.2-0.4c0-0.5-0.1-1,0.2-1.4l0.2-0.1l3.1-4.9l2.1,1.4c-0.2,0.5-1.5,2-1.4,2.6
			l0,0l0,0l0,0c0.6,0.1,2.4,0,3,0L168.8,336z"/>
		<rect x="205" y="332" class="st2" width="6" height="6"/>
		<path class="st1" d="M210,331v4c0,0-0.6,0.5-0.9,1H206v-3c0,0,1,0,1,0v-2H210z"/>
		
			<image style="overflow:visible;opacity:0.25;enable-background:new    ;" width="55" height="55" xlink:href="54781457C1FAB869.png"  transform="matrix(1 0 0 1 103 302)">
		</image>
		<path class="st1" d="M111.4,316.4c-0.3,4.6-0.3,9.2-0.1,13.8c0.6,0.1,1.9,0.2,2.5,0c0.3-5.1,0.3-10.2,0.1-15.3
			c-0.6-0.2-1.9-0.1-2.5,0C111.3,315.4,111.6,315.9,111.4,316.4z"/>
		<path class="st1" d="M129.6,310.5c-4.6-0.3-9.2-0.4-13.8-0.1c-0.1,0.6-0.2,1.9,0,2.6c5.1,0.3,10.2,0.3,15.3,0.1
			c0.2-0.6,0.1-1.9,0-2.6c-0.5,0-0.9,0.1-1.4,0.1L129.6,310.5z"/>
		<path class="st1" d="M135.5,328.6c0.3-4.6,0.4-9.2,0.1-13.8c-0.6-0.1-1.9-0.2-2.6,0c-0.3,5.1-0.3,10.2-0.1,15.3
			c0.6,0.2,1.9,0.1,2.6,0c0-0.5-0.1-0.9-0.1-1.4C135.4,328.8,135.4,328.7,135.5,328.6z"/>
		<path class="st1" d="M117.3,334.5c4.6,0.3,9.2,0.3,13.8,0.1c0.1-0.6,0.2-1.9,0-2.5c-5.1-0.3-10.2-0.3-15.3-0.1
			c-0.2,0.6-0.1,1.9,0,2.5c0.4,0,0.9-0.1,1.4-0.1L117.3,334.5z"/>
		<path class="st1" d="M113,311h-1.3c0,0-0.1-0.4-0.7-0.4v4.4h3v-1.9l0,0v0l0,0v0h0.1l0,0h0.1h1.9v-2.6C114.8,310.4,113,311,113,311
			z"/>
		<path class="st1" d="M135,312v-1.2l1-0.1v-0.1c0,0-0.7-0.1-0.8-0.6H131v3h2v0.1l0,0l0,0l0,0l0,0l0,0l0,0l0,0l0,0l0,0v1.9h2.4
			C135.4,313.8,135,312,135,312z"/>
		<path class="st1" d="M133.9,334h1.2c0,0,0.1,0.4-0.1,0.4v0l1-0.1V330h-3c0,0,0,1.9,0,2l0,0l0,0v0l0,0l0,0h-2v2.6
			C132.2,334.6,133.9,334,133.9,334z"/>
		<path class="st1" d="M111,333v1.2l1,0.1v0.1l-1,0.1v0.1c0,0,0.6,0.1,0.6,0.5h3.4v-3h-1.1l0,0l0,0l0,0h0.1v0l0,0l0,0l0,0v0l0,0v-2
			h-2.7C111.3,331.2,111,333,111,333z"/>
	</g>
</g>
<path class="st1" d="M302,50.3c2.7,0.1,5.5-0.2,8.1-0.9c0-0.9-0.2-2.7-0.5-3.6c-3.1,0-6,0.3-9,1.1c0,0.9,0.3,2.7,0.5,3.6
	C301.4,50.6,301.7,50.4,302,50.3z"/>
</svg>
